<?xml version="1.0" encoding="UTF-8"?>
<svg width="503px" height="66px" viewBox="0 0 503 66" version="1.1" xmlns="http://www.w3.org/2000/svg" xmlns:xlink="http://www.w3.org/1999/xlink">
    <!-- Generator: Sketch 60 (88103) - https://sketch.com -->
    <title>Logo_Family</title>
    <desc>Created with Sketch.</desc>
    <defs>
        <polygon id="path-1" points="0 0.205122769 65.2226602 0.205122769 65.2226602 65.7112685 0 65.7112685"></polygon>
    </defs>
    <g id="Web" stroke="none" stroke-width="1" fill="none" fill-rule="evenodd">
        <g id="Loil_Signup_BRD_v10" transform="translate(-110.000000, -645.000000)">
            <g id="Logo_Family" transform="translate(110.000000, 645.000000)">
                <path d="M153.227791,30.4493125 C151.019238,27.3573385 148.810685,24.2653646 146.160422,21.6151011 L143.951869,26.0322068 C146.160422,28.2407597 148.368975,30.8910231 150.577527,33.5412865 C154.111212,38.4001028 154.111212,45.0257614 150.577527,49.8845776 C147.927264,53.8599728 143.068448,56.0685256 138.651342,56.0685256 C133.792526,56.0685256 129.37542,53.8599728 126.725157,49.8845776 C123.191472,44.5840508 123.191472,37.9583922 127.166867,32.6578654 C128.491999,30.007602 137.32621,14.9894426 138.651342,12.7808897 C140.859895,10.1306263 140.859895,6.59694176 138.651342,3.94667834 C130.258841,19.8482589 125.400025,26.915628 123.191472,30.4493125 C118.332656,37.0749711 118.332656,45.9091825 122.749761,52.534841 C126.283446,57.8353679 132.025683,60.4856313 138.209631,60.4856313 C144.393579,60.9273419 150.577527,57.8353679 153.669501,52.534841 C158.086607,45.9091825 158.086607,37.0749711 153.227791,30.4493125 L153.227791,30.4493125 Z M128.933709,48.1177353 C132.909105,53.4182622 139.976474,54.3016833 145.277001,50.3262882 C146.160422,49.4428671 147.043843,49.0011565 147.485553,48.1177353 C150.577527,44.1423402 150.135817,38.8418134 147.043843,34.8664182 C145.277001,32.6578654 143.951869,30.8910231 141.743316,28.6824703 L139.093053,33.099576 C140.418184,34.4247077 141.301605,35.7498394 142.626737,37.0749711 C144.393579,39.2835239 144.83529,42.8172085 143.068448,45.0257614 C141.743316,46.7926036 139.976474,47.6760248 137.767921,47.6760248 C135.559368,47.6760248 133.792526,46.7926036 132.467394,45.0257614 C131.142262,42.8172085 131.142262,40.1669451 132.467394,37.9583922 C132.909105,37.0749711 134.675947,34.4247077 137.767921,29.1241808 L141.301605,22.9402328 C143.510158,19.8482589 143.510158,15.8728637 141.743316,12.7808897 C137.767921,20.73168 133.350815,27.7990491 128.491999,35.3081288 C125.841735,38.8418134 125.841735,44.1423402 128.933709,48.1177353 L128.933709,48.1177353 Z M135.559368,43.2589191 C136.442789,44.5840508 138.651342,45.0257614 139.976474,43.7006296 C140.418184,43.7006296 140.418184,43.2589191 140.418184,43.2589191 C141.301605,42.3754979 141.301605,40.6086557 140.418184,39.7252345 L138.209631,35.7498394 L136.001079,40.1669451 C134.675947,41.0503662 134.675947,42.3754979 135.559368,43.2589191 L135.559368,43.2589191 Z" id="Shape" fill="#FFFFFF" fill-rule="nonzero"></path>
                <path d="M255.579379,34.1223348 C254.675781,38.2441491 249.736802,37.8070737 249.736802,37.8070737 C249.736802,37.8070737 250.137614,44.00002 244.786099,44.0606374 C238.911348,44.0867261 239.944733,38.1822551 239.757415,37.7607214 C239.208003,37.795622 238.654502,37.7918047 238.106999,37.7293654 C237.657108,37.6781052 237.210217,37.5867638 236.780503,37.4422535 C236.417592,37.3201014 236.067223,37.1597768 235.742211,36.9569172 C235.457553,36.7796876 235.193072,36.5702841 234.956948,36.3319785 C234.743454,36.1171217 234.553682,35.8796341 234.389268,35.6255142 C234.055531,35.1085492 233.806591,34.5468678 233.699981,33.9371981 C233.67326,33.7850533 233.654992,33.6312726 233.645721,33.4769465 C233.607549,32.8432827 233.717431,32.2017117 233.962281,31.6160361 C234.153416,31.1590565 234.381633,30.730979 234.707463,30.352253 C234.925046,30.0994964 235.17344,29.8742785 235.444193,29.6795987 C235.701584,29.4947346 235.978335,29.3374093 236.266538,29.2057141 C236.540289,29.0805628 236.824129,28.9785876 237.113695,28.8965167 C237.380357,28.820717 237.651655,28.7618222 237.925134,28.7179238 C238.162349,28.6797513 238.400927,28.6524852 238.640323,28.6358529 C238.826278,28.6230378 239.012778,28.616494 239.199005,28.6167666 C239.312705,28.6170393 239.426677,28.6194932 239.540377,28.6260371 C239.56628,28.6276731 239.59191,28.629309 239.61754,28.6314903 C239.61754,28.6314903 239.24154,22.4371808 244.594419,22.4009159 C250.467534,22.3981903 249.411245,28.301298 249.595837,28.7211957 C253.539058,28.4883434 254.957167,30.4444124 255.466771,31.9584982 C255.611553,32.388757 255.671266,32.8424647 255.666631,33.2964451 C255.664177,33.5731958 255.63882,33.8515826 255.579379,34.1223348 M244.675126,15.9186772 C235.159535,15.9216768 227.445959,23.6736978 227.447322,33.2359143 C227.450049,42.7964949 235.16826,50.544426 244.685215,50.5403378 C254.201897,50.5387002 261.914109,42.7864065 261.911383,33.2271892 C261.908656,23.6666086 254.191808,15.9170415 244.675126,15.9186772" id="Fill-1" fill="#FFFFFF"></path>
                <path d="M227.017609,15.3616041 L229.028482,17.7048515 L229.718587,17.1066336 C230.067866,16.8023441 230.166569,16.414075 230.005154,15.9434624 C229.917902,15.6852525 229.759759,15.425952 229.532632,15.159017 C229.220163,14.7955601 228.918327,14.5635257 228.638032,14.4691851 C228.356373,14.3723905 228.045267,14.4697304 227.705259,14.7650221 L227.017609,15.3616041 Z M227.916844,13.6318435 C228.239675,13.4944225 228.569049,13.4717916 228.913965,13.5590431 C229.193442,13.6285716 229.446472,13.7469064 229.667599,13.9167741 C229.89309,14.0852786 230.086134,14.2635988 230.247276,14.4517348 C230.655722,14.9294366 230.907388,15.4169542 231.001456,15.9129243 C231.124426,16.5847607 230.919113,17.1535313 230.378154,17.620872 L228.836529,18.9555469 L225.757097,15.3673299 L227.296541,14.0321097 C227.519577,13.8434284 227.727072,13.7084612 227.916844,13.6318435 L227.916844,13.6318435 Z" id="Fill-3" fill="#FFFFFF"></path>
                <polygon id="Fill-5" fill="#FFFFFF" points="234.257763 14.8442301 233.406516 15.3284758 231.072539 11.2088428 231.922696 10.7254151"></polygon>
                <path d="M236.262911,12.5194417 C236.357797,12.7157576 236.469861,12.8485434 236.588196,12.9221618 C236.803598,13.0530391 237.101889,13.053857 237.475707,12.9267971 C237.700652,12.8490887 237.874064,12.7651092 238.000306,12.6661333 C238.232068,12.4796333 238.309776,12.2631405 238.22198,12.0087479 C238.171537,11.8620564 238.067381,11.7688064 237.910328,11.7298159 C237.754094,11.6973692 237.525331,11.7003685 237.21777,11.7352691 L236.700259,11.7933459 C236.18902,11.850332 235.822019,11.8470601 235.604435,11.7829847 C235.233071,11.6799189 234.971589,11.4080761 234.822717,10.9663655 C234.684205,10.5652813 234.719651,10.1813748 234.92551,9.81355532 C235.130551,9.44628114 235.514457,9.16680375 236.086227,8.97157857 C236.563929,8.80989068 237.012729,8.79462167 237.43508,8.92986146 C237.856341,9.06810052 238.155723,9.36911811 238.334316,9.84300269 L237.435353,10.1481102 C237.32847,9.88281118 237.143333,9.73448367 236.880488,9.69412986 C236.706531,9.67149901 236.509397,9.69740179 236.288814,9.77374683 C236.040147,9.85854436 235.862373,9.97306193 235.746764,10.1222074 C235.631701,10.2691716 235.60389,10.4294962 235.664693,10.6048172 C235.717317,10.7662324 235.829926,10.8586644 236.002248,10.8911111 C236.112948,10.9091067 236.332985,10.9039261 236.659633,10.8725701 L237.508699,10.7902265 C237.876246,10.7531447 238.170992,10.7733216 238.387485,10.8523932 C238.726948,10.970728 238.963072,11.2305738 239.102402,11.6330213 C239.238459,12.0409219 239.195379,12.4360075 238.972615,12.8130975 C238.748488,13.1948227 238.347949,13.4813893 237.772089,13.6760691 C237.182869,13.8789288 236.677356,13.9023777 236.249551,13.7529595 C235.823109,13.6008147 235.529999,13.2913447 235.372128,12.8234586 L236.262911,12.5194417 Z" id="Fill-7" fill="#FFFFFF"></path>
                <polygon id="Fill-9" fill="#FFFFFF" points="244.28244 7.33673129 244.357422 8.17352748 242.9524 8.30140543 243.308768 12.1879134 242.320372 12.2792548 241.963732 8.39301948 240.552985 8.52307871 240.475549 7.68819114"></polygon>
                <path d="M247.871639,8.52776848 L247.678867,9.78473507 L248.726703,9.94533232 C248.935016,9.97805162 249.094795,9.97668832 249.207949,9.94015176 C249.404811,9.87989371 249.525054,9.71820582 249.564045,9.45699671 C249.609306,9.1707028 249.54823,8.96675247 249.384361,8.84432774 C249.290566,8.77207261 249.146328,8.72163035 248.94674,8.691365 L247.871639,8.52776848 Z M249.989668,8.14004473 C250.148629,8.23902062 250.278961,8.37235179 250.376574,8.53594831 C250.455918,8.66818882 250.516722,8.81215376 250.550804,8.96593449 C250.590067,9.11944256 250.592521,9.28603834 250.562256,9.47199305 C250.531991,9.69421166 250.442013,9.90388786 250.295594,10.103203 C250.151901,10.2992461 249.943861,10.4257608 249.6742,10.4756577 C249.875969,10.5950832 250.008754,10.7409567 250.073648,10.9146417 C250.138814,11.0883267 250.147811,11.3408106 250.096824,11.6674583 L250.048563,11.981291 C250.01748,12.1972384 250.00521,12.342294 250.01039,12.4235469 C250.01857,12.5478803 250.062469,12.6468562 250.150265,12.7163847 L250.131997,12.8336289 L249.056895,12.6700323 C249.04299,12.562604 249.035628,12.4756251 249.031538,12.4101865 C249.024721,12.2735834 249.03481,12.1375257 249.048988,11.9979233 L249.108974,11.5627566 C249.152327,11.2620116 249.131604,11.0564253 249.04708,10.9410898 C248.964463,10.8260269 248.78587,10.7488639 248.515936,10.7066015 L247.563532,10.5623639 L247.285418,12.4009161 L246.333013,12.2544972 L247.041932,7.56582095 L249.273115,7.90610171 C249.589947,7.96554178 249.828526,8.04052351 249.989668,8.14004473 L249.989668,8.14004473 Z" id="Fill-11" fill="#FFFFFF"></path>
                <polygon id="Fill-13" fill="#FFFFFF" points="252.845055 13.7561224 251.922097 13.4226581 253.524253 8.9624717 254.448846 9.29811722"></polygon>
                <path d="M257.225733,11.2808798 C257.753877,11.14564 258.26757,11.2266203 258.769266,11.5322731 C259.442193,11.943991 259.799652,12.4620466 259.840823,13.101709 C259.862364,13.4550775 259.801288,13.7640023 259.660867,14.026302 L258.816709,13.5139722 C258.880239,13.2860278 258.900143,13.0957105 258.875604,12.947383 C258.832796,12.6807206 258.66211,12.4579567 258.365455,12.2766372 C258.065801,12.0934091 257.756604,12.0735049 257.430774,12.2185605 C257.107944,12.3611621 256.809107,12.6599984 256.53481,13.1175234 C256.261604,13.5690497 256.148995,13.9676799 256.194802,14.3027801 C256.242791,14.6436062 256.408023,14.8955449 256.688318,15.0675939 C256.978975,15.2431875 257.256816,15.2794514 257.525387,15.1777488 C257.672624,15.1262159 257.837039,15.0089718 258.019176,14.8331055 L258.859517,15.3427087 C258.519509,15.7413389 258.117607,15.9894602 257.654083,16.0862548 C257.189469,16.1838674 256.726218,16.0903448 256.262422,15.8086861 C255.689562,15.4607708 255.348736,14.999156 255.242398,14.4235689 C255.141513,13.8487998 255.286569,13.2336769 255.683291,12.5782002 C256.109732,11.8695546 256.623153,11.4376598 257.225733,11.2808798" id="Fill-15" fill="#FFFFFF"></path>
                <polygon id="Fill-17" fill="#FFFFFF" points="265.266011 16.6885627 264.67461 17.2810548 263.678852 16.2727549 260.92525 19.026357 260.225875 18.3190747 262.981113 15.5660179 261.980448 14.5558094 262.572667 13.964408"></polygon>
                <g id="Group-21" transform="translate(212.396033, 0.000000)">
                    <mask id="mask-2" fill="white">
                        <use xlink:href="#path-1"></use>
                    </mask>
                    <g id="Clip-20"></g>
                    <path d="M30.9444997,2.56091264 L30.8177124,0.254474385 C31.4142944,0.220937099 32.0125123,0.205122769 32.6134568,0.205122769 L33.1726843,0.209485343 L33.1296039,2.51892287 L32.6134568,2.5159236 C32.0558654,2.5159236 31.4966379,2.53064729 30.9444997,2.56091264 L30.9444997,2.56091264 Z M39.6339288,3.33554216 C38.9291005,3.16894637 38.2128204,3.02416345 37.4894511,2.90719194 L37.8556346,0.626383805 C38.6351721,0.752625786 39.406257,0.907497157 40.1658901,1.08690801 L39.6339288,3.33554216 Z M24.4775293,3.62810727 L23.8621337,1.40264929 C24.6144051,1.19133712 25.3781281,1.00729103 26.150849,0.851056358 L26.6061927,3.11550484 C25.8885493,3.26028776 25.1779951,3.43260943 24.4775293,3.62810727 L24.4775293,3.62810727 Z M45.8126967,5.54218654 C45.1585832,5.22371865 44.4913821,4.92842693 43.808094,4.65740203 L44.6568873,2.51019772 C45.3892543,2.80139953 46.1112603,3.11823145 46.8160886,3.46314744 L45.8126967,5.54218654 Z M18.39801,6.07087596 L17.3141831,4.0305547 C18.0045604,3.66300786 18.710752,3.31672856 19.4313947,2.99689737 L20.3625315,5.10783778 C19.6936944,5.40612877 19.0382177,5.72759593 18.39801,6.07087596 L18.39801,6.07087596 Z M51.371979,9.03606286 C50.7996639,8.58290051 50.2101711,8.14991505 49.6035007,7.73874247 L50.8918233,5.8246632 C51.5434827,6.26910041 52.1804185,6.73398718 52.7944508,7.22177747 L51.371979,9.03606286 Z M12.9772393,9.77170188 L11.4857844,8.01249398 C12.0837297,7.49989155 12.6991253,7.0118286 13.3349704,6.54421522 L14.6939121,8.40921554 C14.103056,8.84056502 13.5337402,9.29672665 12.9772393,9.77170188 L12.9772393,9.77170188 Z M56.0587466,13.6448495 C55.5933146,13.0771695 55.1047063,12.5272126 54.6060096,11.9957966 L56.2725128,10.4045477 C56.8126539,10.9763176 57.3315276,11.5671737 57.8332236,12.1738441 L56.0587466,13.6448495 Z M8.47206386,14.5558094 L6.64141882,13.1570592 C7.11721203,12.5272126 7.61590875,11.9189062 8.13314641,11.3266868 L9.85990767,12.8530423 C9.37838858,13.4029993 8.91568309,13.9706792 8.47206386,14.5558094 L8.47206386,14.5558094 Z M59.6535075,19.1528716 C59.317862,18.4968496 58.9617669,17.8555512 58.5841316,17.2284312 L60.5530157,16.0325407 C60.9562811,16.704377 61.3385516,17.3906644 61.6987366,18.0944021 L59.6535075,19.1528716 Z M5.08916051,20.1996167 L3.00221425,19.228126 C3.3321339,18.5099373 3.68986495,17.8061996 4.07022686,17.1171856 L6.08219138,18.2361858 C5.72909556,18.8777568 5.39617665,19.5307796 5.08916051,20.1996167 L5.08916051,20.1996167 Z M61.9754874,25.3008288 C61.7938953,24.5883659 61.5834011,23.8859916 61.3500034,23.1956142 L63.529109,22.452886 C63.779957,23.1983409 64.0032663,23.9541568 64.2050353,24.7216971 L61.9754874,25.3008288 Z M2.99948764,26.4402785 L0.75385276,25.9464897 C0.922629835,25.1718602 1.11703703,24.4075918 1.33898298,23.6528665 L3.54426405,24.3105245 C3.33949574,25.0098996 3.15626764,25.7207265 2.99948764,26.4402785 L2.99948764,26.4402785 Z M62.9238019,31.8149695 C62.8978991,31.0779672 62.8430943,30.3469634 62.7651133,29.6200495 L65.051102,29.3724735 C65.1348089,30.1501023 65.1923403,30.9361835 65.2228783,31.7282634 L62.9238019,31.8149695 Z M0.586711649,33.0806612 L-5.4532173e-05,33.0473966 C-0.0014178365,32.1915142 0.02584825,31.4037969 0.0836523534,30.6234415 L2.37673023,30.7884014 C2.32492466,31.5153152 2.29874922,32.247955 2.29874922,32.9863206 L0.586711649,33.0806612 Z M64.7326341,38.7926337 L62.4668223,38.3858237 C62.5952456,37.667635 62.6991294,36.9420844 62.778201,36.2067181 L65.0641897,36.4499316 C64.9821188,37.2403754 64.8681465,38.0207308 64.7326341,38.7926337 L64.7326341,38.7926337 Z M0.78548142,40.1581193 C0.613977736,39.3935782 0.471376103,38.6159495 0.354677253,37.8282322 L2.63030483,37.4895874 C2.7385512,38.2192279 2.87106438,38.9401432 3.02811703,39.6528787 L0.78548142,40.1581193 Z M62.7405738,45.5892511 L60.6206356,44.6987407 C60.9017489,44.0225418 61.1553235,43.3376177 61.3873579,42.6398785 L63.5724621,43.3708823 C63.3216141,44.1209723 63.0421367,44.8609739 62.7405738,45.5892511 L62.7405738,45.5892511 Z M3.05974569,46.8576694 C2.72846274,46.1452066 2.42144661,45.4199287 2.14033326,44.6769278 L4.2894462,43.8562186 C4.54874668,44.5438693 4.8342226,45.2157057 5.14260204,45.8760903 L3.05974569,46.8576694 Z M59.3350396,51.7982843 L57.454225,50.4715165 C57.8722141,49.8678454 58.2700263,49.2527225 58.6476616,48.6242392 L60.6206356,49.8114046 C60.2157342,50.4892395 59.7876566,51.1493514 59.3350396,51.7982843 L59.3350396,51.7982843 Z M6.72348974,52.9115586 C6.24524258,52.2860746 5.78962627,51.6415043 5.35582284,50.980029 L7.27862726,49.7116107 C7.68080203,50.324007 8.10315371,50.9222249 8.54540964,51.5027199 L6.72348974,52.9115586 Z M54.6883531,57.1219877 L53.1300963,55.4222199 C53.6694195,54.9240685 54.1896564,54.4087394 54.6883531,53.8759601 L56.3643995,55.4598471 C55.8256216,56.0332529 55.2677575,56.5878451 54.6883531,57.1219877 L54.6883531,57.1219877 Z M11.5893955,58.0313117 C10.9898143,57.5203452 10.4076833,56.9905652 9.84709261,56.4416988 L11.4525198,54.7852841 C11.975756,55.2962505 12.5148065,55.7914027 13.0740339,56.2663779 L11.5893955,58.0313117 Z M49.0126446,61.3239643 L47.8538359,59.330268 C48.4880451,58.95645 49.1048039,58.5643637 49.7071118,58.1515551 L51.0044322,60.0612718 C50.3571353,60.5059817 49.69566,60.9242435 49.0126446,61.3239643 L49.0126446,61.3239643 Z M17.4382437,61.9928014 C16.7391413,61.6222553 16.0574891,61.2298963 15.3913786,60.8099985 L16.6109907,58.8509302 C17.2307488,59.2391993 17.8646853,59.6051102 18.5103463,59.9470269 L17.4382437,61.9928014 Z M42.571577,64.204081 L41.8694752,62.0015265 C42.571577,61.7787626 43.2559557,61.5281873 43.9321547,61.257435 L44.7853105,63.4002768 C44.0603053,63.6928419 43.320849,63.9622308 42.571577,64.204081 L42.571577,64.204081 Z M24.0003728,64.59644 C23.236377,64.3892177 22.4857417,64.1503668 21.7476487,63.8856131 L22.5203696,61.7105974 C23.2047484,61.9540835 23.8994883,62.1724849 24.6043166,62.3663468 L24.0003728,64.59644 Z M35.6618053,65.6140103 L35.4499478,63.3119346 C36.1836782,63.2440421 36.9070475,63.1513374 37.6233276,63.0327299 L38.0012355,65.3116294 C37.2301506,65.440598 36.4487046,65.5403919 35.6618053,65.6140103 L35.6618053,65.6140103 Z M30.960314,65.7113503 C30.1720515,65.6734504 29.3892421,65.6055578 28.6154306,65.5084906 L28.8965439,63.21514 C29.6171866,63.3034822 30.3435551,63.3670121 31.0756496,63.4046393 L30.960314,65.7113503 Z" id="Fill-19" fill="#FFFFFF" mask="url(#mask-2)"></path>
                </g>
                <polygon id="Fill-22" fill="#FFFFFF" points="232.901003 52.6955021 230.91385 51.3158382 230.357895 52.1171884 232.181724 53.3831528 231.726925 54.0386296 229.903097 52.7721198 229.229897 53.7422472 231.308391 55.1851685 230.837778 55.8632761 227.992289 53.8881208 230.610924 50.1158577 233.364799 52.027483"></polygon>
                <path d="M228.039569,53.8796137 L230.829162,55.8160512 L231.261057,55.1935665 L229.18229,53.7506452 L229.894481,52.724895 L231.718582,53.991132 L232.13439,53.3918235 L230.310561,52.1255864 L230.905507,51.2686133 L232.892387,52.6480046 L233.317192,52.035881 L230.619486,50.1632462 L228.039569,53.8796137 Z M230.846067,55.9106645 L227.944683,53.8965187 L230.602308,50.0683602 L233.412078,52.018976 L232.909564,52.7428906 L230.922412,51.3632266 L230.405174,52.1086814 L232.229276,53.3746458 L231.735487,54.086018 L229.911658,52.8195083 L229.277176,53.7337402 L231.355943,55.1766615 L230.846067,55.9106645 Z" id="Fill-24" fill="#FFFFFF"></path>
                <path d="M235.446401,53.9205947 L234.357666,56.7126419 L235.179466,57.0332911 C235.599909,57.197433 235.974545,57.1036376 236.302556,56.7521778 C236.48224,56.5594065 236.633567,56.3050139 236.756537,55.9895453 C236.926404,55.5541059 236.988571,55.1933756 236.943582,54.9070817 C236.898593,54.6207878 236.673375,54.3988418 236.268201,54.2409712 L235.446401,53.9205947 Z M237.331306,53.9064163 C237.591697,54.1215457 237.7632,54.3969332 237.845544,54.7323061 C237.910983,55.0030583 237.922434,55.2727199 237.879899,55.5412909 C237.837364,55.8104071 237.772198,56.0568926 237.684674,56.2812924 C237.463001,56.850063 237.161165,57.2876837 236.779985,57.5938818 C236.264111,58.0055998 235.684161,58.085762 235.040136,57.8349141 L233.204038,57.1189066 L234.872177,52.840585 L236.708276,53.5565924 C236.970848,53.6634755 237.178616,53.7799017 237.331306,53.9064163 L237.331306,53.9064163 Z" id="Fill-26" fill="#FFFFFF"></path>
                <path d="M234.401837,56.693283 L235.191736,57.0016625 C235.601818,57.1614417 235.956822,57.0722816 236.277744,56.7290016 C236.453338,56.5400476 236.603846,56.287291 236.724908,55.9772756 C236.891504,55.5497433 236.95367,55.1911943 236.909772,54.9125349 C236.867237,54.6404194 236.646927,54.4252899 236.255931,54.2725999 L235.46576,53.9647657 L234.401837,56.693283 Z M235.566372,57.1453547 C235.437676,57.1453547 235.304617,57.1189066 235.167196,57.0649198 L234.313495,56.7322735 L234.325765,56.7000995 L235.427042,53.8764236 L236.280743,54.2093425 C236.696006,54.3710304 236.930222,54.6041555 236.977119,54.9019011 C237.022926,55.1928303 236.959396,55.5628311 236.788438,56.0018151 C236.664377,56.3200103 236.509233,56.5804014 236.327368,56.7753539 C236.097515,57.0218394 235.842577,57.1453547 235.566372,57.1453547 L235.566372,57.1453547 Z M233.248209,57.0995477 L235.052679,57.8032854 C235.681435,58.0486802 236.255659,57.9690632 236.758718,57.5671611 C237.133627,57.2661435 237.434371,56.8293408 237.652773,56.26875 C237.739206,56.0476221 237.804372,55.8011367 237.846089,55.5361103 C237.887806,55.2727199 237.876355,55.0052396 237.812279,54.7402132 C237.732117,54.4138382 237.563067,54.142268 237.309765,53.9328644 C237.160347,53.8090764 236.95367,53.6931955 236.695733,53.5882211 L234.891536,52.8847561 L233.248209,57.0995477 Z M235.742783,58.0107803 C235.513203,58.0107803 235.274625,57.962792 235.027867,57.8668154 L233.159867,57.1385382 L233.172137,57.1066369 L234.852818,52.7964139 L234.88472,52.8089563 L236.720818,53.5249638 C236.985844,53.6326648 237.19852,53.7520903 237.353119,53.8802409 C237.617872,54.0989149 237.794829,54.3827548 237.878536,54.7238536 C237.944793,54.9976051 237.956517,55.2746285 237.913437,55.5467441 C237.870902,55.8164057 237.804372,56.067799 237.716575,56.2935622 C237.493539,56.865332 237.185432,57.3119505 236.801253,57.62033 C236.475423,57.8807211 236.121237,58.0107803 235.742783,58.0107803 L235.742783,58.0107803 Z" id="Fill-28" fill="#FFFFFF"></path>
                <polygon id="Fill-30" fill="#FFFFFF" points="240.11411 59.2281838 239.18161 59.0520449 240.033675 54.5397802 240.966175 54.7159192"></polygon>
                <path d="M239.221445,59.0250242 L240.086871,59.1883481 L240.926121,54.743158 L240.060695,54.5795615 L239.221445,59.0250242 Z M240.141403,59.2682377 L239.141828,59.0792837 L239.1481,59.0457464 L240.006436,54.4996718 L241.005738,54.6888985 L240.999467,54.7224357 L240.141403,59.2682377 Z" id="Fill-32" fill="#FFFFFF"></path>
                <path d="M243.793586,55.8010003 L243.776954,56.8133901 L244.887774,56.8313857 C245.086271,56.8346577 245.247959,56.7994844 245.372838,56.725866 C245.497717,56.6519749 245.562065,56.5186437 245.565337,56.3253272 C245.568609,56.1115611 245.488992,55.9689594 245.326758,55.8975223 C245.186338,55.8476253 245.006654,55.8206319 244.787708,55.81736 L243.793586,55.8010003 Z M243.764684,57.5735686 L243.74478,58.7975432 L244.85451,58.8158115 C245.052462,58.8188108 245.207333,58.794544 245.318306,58.7421931 C245.520348,58.6459438 245.623413,58.4564445 245.628049,58.1739678 C245.632139,57.9351169 245.537525,57.7696118 245.345027,57.6771797 C245.237598,57.6253742 245.085726,57.5970174 244.889683,57.5918369 L243.764684,57.5735686 Z M246.280253,55.5332474 C246.416856,55.7306538 246.48284,55.9654148 246.478478,56.2375304 C246.474115,56.5178257 246.399679,56.741953 246.255987,56.9099121 C246.175552,57.0042527 246.057762,57.0895956 245.902891,57.1659406 C246.134652,57.2548281 246.30861,57.3927945 246.424218,57.5792945 C246.540099,57.7660672 246.595722,57.9912851 246.591359,58.2552208 C246.586997,58.5273363 246.515287,58.7702772 246.375957,58.9837706 C246.287343,59.1255543 246.17746,59.2444344 246.04631,59.3401384 C245.898528,59.449748 245.725116,59.5236391 245.526346,59.5620843 C245.327304,59.6005295 245.111629,59.6177071 244.879595,59.6136172 L242.820187,59.5803526 L242.894896,54.9887436 L245.103722,55.0247348 C245.660768,55.0421851 246.053127,55.2115075 246.280253,55.5332474 L246.280253,55.5332474 Z" id="Fill-34" fill="#FFFFFF"></path>
                <path d="M243.811691,56.7798256 L244.888429,56.7972759 C245.079837,56.7980938 245.237162,56.7664652 245.355769,56.6963913 C245.47056,56.6284988 245.528091,56.506892 245.53109,56.3247546 C245.534362,56.1243489 245.462925,55.9948349 245.312689,55.928851 C245.178813,55.8811354 245.001038,55.8546873 244.787272,55.8514153 L243.827233,55.835601 L243.811691,56.7798256 Z M244.911878,56.8657137 C244.903698,56.8657137 244.895518,56.8654411 244.887338,56.8654411 L243.742435,56.8469001 L243.760158,55.7663451 L244.788362,55.7832501 C245.009763,55.786522 245.194627,55.8143334 245.338047,55.865321 C245.515821,55.9435747 245.603073,56.0981734 245.599256,56.3258452 C245.595711,56.5308862 245.525637,56.6751238 245.390397,56.7550134 C245.265791,56.8286319 245.105194,56.8657137 244.911878,56.8657137 L244.911878,56.8657137 Z M243.779244,58.7639787 L244.854891,58.7817016 C245.045754,58.7866095 245.197899,58.7612521 245.303964,58.7113551 C245.494554,58.6202864 245.589712,58.4444202 245.594075,58.1733953 C245.59762,57.9470867 245.511459,57.794942 245.330412,57.7076905 C245.227346,57.6586115 245.078746,57.6308001 244.888701,57.6261649 L243.798331,57.6081693 L243.779244,58.7639787 Z M244.887611,58.8501395 C244.876432,58.8501395 244.865253,58.8501395 244.853801,58.8498669 L243.709988,58.8310533 L243.731256,57.5389134 L244.890065,57.5579997 C245.090198,57.5629076 245.248341,57.5926276 245.359587,57.6466145 C245.564628,57.7447724 245.66633,57.9222746 245.66224,58.1744859 C245.657332,58.469505 245.546632,58.6710013 245.333139,58.7732492 C245.224074,58.8242367 245.074111,58.8501395 244.887611,58.8501395 L244.887611,58.8501395 Z M242.854924,59.546788 L244.879976,59.57978 C245.108739,59.5833246 245.323595,59.5664196 245.519911,59.5285198 C245.712683,59.4914379 245.883096,59.4189101 246.026243,59.3125723 C246.153302,59.2198677 246.261276,59.1031688 246.346892,58.9657477 C246.482131,58.7582528 246.552751,58.5194019 246.557386,58.2546482 C246.561476,57.9986196 246.506944,57.777219 246.395153,57.5972628 C246.28418,57.4181247 246.114585,57.2837028 245.89073,57.1978147 L245.81793,57.1700033 L245.887731,57.1353753 C246.037967,57.0612116 246.15303,56.97805 246.230193,56.8877993 C246.367887,56.7269294 246.440142,56.50771 246.444504,56.2369578 C246.448594,55.9732947 246.383974,55.743169 246.252278,55.552579 C246.032514,55.2417456 245.645881,55.0756952 245.102468,55.0587902 L242.928542,55.0236169 L242.854924,59.546788 Z M244.943506,59.6484905 C244.922239,59.6484905 244.900698,59.6482179 244.879158,59.6479452 L242.785668,59.6141353 L242.861468,54.9543611 L245.104103,54.990625 C245.670693,55.0083479 246.075321,55.1842142 246.308174,55.5133159 L246.308174,55.5135885 C246.448049,55.7164482 246.516759,55.9599343 246.51267,56.2380484 C246.508034,56.5248877 246.430326,56.7588307 246.281726,56.932243 C246.210561,57.0154046 246.110495,57.0925676 245.983435,57.1623688 C246.18793,57.2539828 246.345528,57.3878593 246.453229,57.5615443 C246.57211,57.7526795 246.629641,57.9863499 246.625551,58.2557388 C246.620916,58.5335803 246.546479,58.7847009 246.404423,59.0022843 C246.314445,59.1467945 246.200473,59.2697646 246.066324,59.3673772 C245.91527,59.4794408 245.735859,59.5566038 245.532726,59.5955943 C245.350589,59.6304949 245.152637,59.6484905 244.943506,59.6484905 L244.943506,59.6484905 Z" id="Fill-36" fill="#FFFFFF"></path>
                <polygon id="Fill-38" fill="#FFFFFF" points="248.206602 54.7894558 249.138285 54.5792343 249.967719 58.2533394 252.193995 57.7505528 252.37586 58.555993 249.217902 59.2690011"></polygon>
                <path d="M248.247338,54.8152768 L249.243641,59.2282929 L252.33507,58.5302811 L252.168201,57.7913701 L249.941925,58.2941567 L249.934291,58.2608921 L249.112491,54.6197789 L248.247338,54.8152768 Z M249.192108,59.3095458 L249.184746,59.2762812 L248.165812,54.7637439 L249.164024,54.5382533 L249.171658,54.571518 L249.993458,58.2126312 L252.219734,57.7098445 L252.416595,58.581814 L252.383331,58.5894485 L249.192108,59.3095458 Z" id="Fill-40" fill="#FFFFFF"></path>
                <polygon id="Fill-42" fill="#FFFFFF" points="256.199792 52.8456837 254.015506 53.8845216 254.434313 54.7652162 256.439461 53.8114485 256.782196 54.5318185 254.776775 55.4853136 255.284197 56.5516902 257.569095 55.4645914 257.923827 56.2103188 254.795861 57.6982292 252.82316 53.5510574 255.850786 52.111408"></polygon>
                <path d="M252.868749,53.5672807 L254.812003,57.6525585 L257.878347,56.1940955 L257.553062,55.5102621 L255.267892,56.5970883 L254.731295,55.4690903 L256.736716,54.5155952 L256.423156,53.8568466 L254.41828,54.8108869 L253.970026,53.8682983 L256.154312,52.8294604 L255.834481,52.1568061 L252.868749,53.5672807 Z M254.779556,57.7436272 L254.764832,57.7128165 L252.77768,53.5348341 L255.866928,52.0657373 L256.245381,52.8619071 L254.061095,53.900745 L254.450727,54.7198182 L256.455602,53.7660505 L256.827784,54.5480419 L254.822364,55.5015369 L255.300338,56.5060195 L257.585509,55.4191933 L257.969416,56.2265421 L257.938605,56.2412658 L254.779556,57.7436272 Z" id="Fill-44" fill="#FFFFFF"></path>
                <path d="M259.822664,53.244014 C259.976172,53.3898876 260.119047,53.4768664 260.251287,53.5044051 C260.492865,53.5540294 260.764162,53.4594161 261.06518,53.2205652 C261.245409,53.0774182 261.376013,52.9419058 261.457539,52.8134825 C261.611592,52.5691784 261.607775,52.3455965 261.44636,52.1421915 C261.352019,52.0233113 261.226868,51.9731417 261.070633,51.9908647 C260.916034,52.0104963 260.70554,52.0857507 260.439968,52.2169005 L259.984625,52.4393918 C259.53637,52.6572478 259.201815,52.772856 258.980415,52.7867617 C258.607687,52.8123919 258.28104,52.6485227 258.000744,52.2954269 C257.745261,51.973687 257.650648,51.6124114 257.71745,51.2118726 C257.784524,50.8113338 258.046551,50.4296086 258.504076,50.0666969 C258.885801,49.7632254 259.291521,49.6053548 259.720689,49.5919944 C260.149857,49.5791793 260.522585,49.7585902 260.839417,50.1302269 L260.120137,50.7009061 C259.935273,50.4953198 259.716872,50.4178841 259.465206,50.4688717 C259.297792,50.5037723 259.12547,50.5915691 258.947968,50.7325348 C258.750289,50.8893148 258.623774,51.0537293 258.567606,51.225233 C258.511711,51.3970093 258.539522,51.5526987 258.650495,51.6925737 C258.75247,51.820997 258.886619,51.8708939 259.053488,51.8419918 C259.161462,51.8250869 259.359686,51.7490145 259.647071,51.613502 L260.393616,51.2634055 C260.720536,51.1101701 260.996197,51.0332797 261.220051,51.0332797 C261.567694,51.0330071 261.868711,51.1933316 262.123377,51.5134355 C262.38404,51.8419918 262.474291,52.2155372 262.393856,52.6332537 C262.313149,53.0512428 262.042124,53.4430564 261.580509,53.8095126 C261.109351,54.1836033 260.653734,54.371194 260.213933,54.3714679 C259.773858,54.372012 259.405493,54.1849667 259.108565,53.8108759 L259.822664,53.244014 Z" id="Fill-46" fill="#FFFFFF"></path>
                <path d="M259.156717,53.8162201 C259.441375,54.1622267 259.79638,54.337275 260.211915,54.337275 L260.213823,54.337275 C260.643537,54.3370023 261.096154,54.1505023 261.559405,53.7829555 C262.012295,53.4235885 262.281683,53.0345014 262.36021,52.6268734 C262.438463,52.221154 262.349576,51.8538799 262.096547,51.5348666 C261.850061,51.2245786 261.555588,51.0672533 261.22076,51.0672533 L261.219942,51.0672533 C261.002631,51.0672533 260.729425,51.1435983 260.407958,51.2943798 L259.661685,51.6442036 C259.368847,51.78217 259.171714,51.8579698 259.058832,51.8756927 C258.880512,51.9070487 258.733275,51.8519712 258.623938,51.7137322 C258.505603,51.5648593 258.475883,51.3969002 258.535323,51.2144901 C258.593127,51.0375332 258.724822,50.8663022 258.926592,50.7059776 C259.107638,50.5620127 259.286777,50.4712166 259.45828,50.4357707 C259.710764,50.3842378 259.934891,50.4575836 260.123573,50.6544447 L260.790229,50.1257553 C260.497391,49.7936544 260.151929,49.6256953 259.763388,49.6256953 C259.749482,49.6256953 259.735576,49.6256953 259.721671,49.6262406 C259.3015,49.6393283 258.899325,49.796381 258.525507,50.0933086 C258.07698,50.4488584 257.816589,50.827039 257.751151,51.2174894 C257.686257,51.6063038 257.779235,51.9615809 258.027356,52.2743229 C258.298926,52.616785 258.623393,52.7768369 258.978124,52.7528427 C259.194072,52.7394823 259.527536,52.6236015 259.969519,52.4087447 L260.424863,52.1862534 C260.692616,52.0540129 260.908563,51.9768499 261.066434,51.9572183 C261.234393,51.9384047 261.371541,51.9929369 261.472971,52.1208148 C261.643657,52.3359443 261.648292,52.5750678 261.486332,52.8316417 C261.40317,52.9625189 261.268748,53.102394 261.086338,53.2471769 C260.778504,53.4917537 260.495482,53.5899116 260.244361,53.5378334 C260.112939,53.5102946 259.970337,53.4265877 259.820919,53.288894 L259.156717,53.8162201 Z M260.211915,54.4054402 C259.764206,54.4054402 259.383844,54.212669 259.082008,53.8323071 L259.060468,53.8053137 L259.824736,53.1989159 L259.846004,53.2193655 C259.994331,53.3600585 260.133116,53.444856 260.258267,53.4710314 C260.490029,53.5190198 260.752874,53.4249518 261.043803,53.194008 C261.220215,53.0535877 261.350001,52.9194385 261.4288,52.7951052 C261.575219,52.5625254 261.57222,52.3561212 261.419802,52.1633499 C261.332551,52.0534676 261.219669,52.0087512 261.074614,52.0248382 C260.924378,52.0436518 260.716065,52.1183609 260.455128,52.2476021 L259.999512,52.4700934 C259.549349,52.6887674 259.207432,52.8068296 258.982487,52.8210079 C258.601034,52.8452748 258.260481,52.6775883 257.974187,52.316858 C257.713251,51.9883017 257.615911,51.6147563 257.684076,51.2063103 C257.752241,50.798955 258.021085,50.4063233 258.4827,50.0398671 C258.868242,49.733669 259.284595,49.5717084 259.719489,49.5580754 C260.154929,49.5433517 260.542925,49.7298517 260.86521,50.1080323 L260.888114,50.1350258 L260.116211,50.7474221 L260.094671,50.7237006 C259.916623,50.5257488 259.714309,50.453221 259.471913,50.5022999 C259.311043,50.5358372 259.141721,50.6222707 258.969399,50.7591465 C258.777719,50.9110186 258.653658,51.0716158 258.600216,51.2357577 C258.547593,51.3971729 258.572678,51.5395019 258.677107,51.6711971 C258.77172,51.7900772 258.892236,51.8356116 259.047653,51.8086181 C259.1529,51.7917132 259.349761,51.7159135 259.63251,51.5825823 L260.379056,51.2324857 C260.709248,51.0776144 260.99227,50.999088 261.219942,50.999088 L261.22076,50.999088 C261.5774,50.999088 261.889597,51.1648658 262.149988,51.4923315 C262.415833,51.8277044 262.509355,52.2135195 262.427284,52.6396885 C262.345213,53.0636761 262.067645,53.4663962 261.60194,53.8361243 C261.126419,54.2137596 260.659351,54.4051676 260.213823,54.4054402 L260.211915,54.4054402 Z" id="Fill-48" fill="#FFFFFF"></path>
                <ellipse id="Oval" fill="#FFFFFF" fill-rule="nonzero" cx="56.0585758" cy="53.323747" rx="3.97539529" ry="3.57785576"></ellipse>
                <path d="M58.8413525,33.4467706 L58.8413525,31.8566125 C58.8413525,27.0861381 59.2388921,23.5082824 53.2757991,22.7132033 C47.3127062,9.59439888 31.4111251,3.63130594 18.2923206,9.9919384 C12.7267672,12.7747151 7.95629285,17.1476499 5.57105568,22.7132033 C-0.392037252,23.5082824 0.00550227722,27.8812172 0.00550227722,32.254152 L0.00550227722,33.4467706 C0.00550227722,37.8197054 0.00550227722,41.7951007 5.57105568,42.5901798 C11.5341486,55.7089842 27.4357298,61.6720772 40.5545342,55.3114447 C46.1200876,52.528668 50.890562,48.1557332 53.2757991,42.5901798 C58.8413525,41.3975612 58.8413525,37.8197054 58.8413525,33.4467706 L58.8413525,33.4467706 Z M29.8209669,42.9877193 C21.8701764,42.9877193 13.5218463,42.1926402 5.57105568,40.6024821 C3.98089757,40.2049426 2.78827898,39.012324 2.78827898,37.0246264 L2.78827898,28.2787567 C2.78827898,26.6885986 3.98089757,25.0984405 5.57105568,24.700901 C13.5218463,23.5082824 21.0750973,23.1107429 29.0258879,22.7132033 C36.9766785,22.7132033 44.927469,23.5082824 52.8782596,24.700901 C54.8659573,25.0984405 56.0585758,26.6885986 56.0585758,28.2787567 L56.0585758,37.0246264 C56.0585758,38.6147845 54.8659573,40.2049426 53.2757991,40.6024821 C45.3250086,42.1926402 37.7717575,42.9877193 29.8209669,42.9877193 L29.8209669,42.9877193 Z" id="Shape" fill="#FFFFFF" fill-rule="nonzero"></path>
                <ellipse id="Oval" fill="#FFFFFF" fill-rule="nonzero" cx="29.4234274" cy="32.6516915" rx="13.516344" ry="5.5655534"></ellipse>
                <path d="M342.140661,24.0461099 C343.343774,24.0461099 344.14585,24.8481856 344.14585,25.6502613 C344.14585,26.8533749 343.343774,27.6554506 342.541699,27.6554506 L342.140661,27.6554506 C340.937547,27.6554506 340.135472,26.8533749 340.135472,26.0512992 L340.135472,25.6502613 C339.734434,24.8481856 340.937547,24.0461099 342.140661,24.0461099 L342.140661,24.0461099 Z M342.140661,36.879321 C343.343774,36.879321 344.14585,37.6813967 344.14585,38.4834724 L344.14585,38.8845103 C344.14585,40.0876238 343.343774,40.8896995 342.541699,40.8896995 L342.140661,40.8896995 C340.937547,40.8896995 340.135472,40.0876238 340.135472,39.2855481 L340.135472,38.8845103 C340.135472,37.6813967 340.937547,36.879321 342.140661,36.879321 Z M350.161418,22.0409207 L359.786326,22.0409207 C363.796704,21.6398828 367.005007,24.8481856 367.406045,28.8585641 L367.406045,30.0616776 C367.406045,34.0720561 364.197742,37.2803589 360.187364,37.6813967 L353.36972,37.6813967 L353.36972,44.0980023 L350.161418,44.0980023 L350.161418,22.0409207 Z M353.36972,24.8481856 L353.36972,34.473094 L359.385288,34.473094 C361.791515,34.473094 363.796704,32.8689426 364.197742,30.0616776 L364.197742,29.6606398 C364.197742,27.2544127 362.593591,25.2492235 360.187364,24.8481856 L353.36972,24.8481856 L353.36972,24.8481856 Z" id="Shape" fill="#FFFFFF" fill-rule="nonzero"></path>
                <path d="M351.765569,59.7384783 C336.925934,59.7384783 324.896033,47.7085774 324.896033,32.8689426 C324.896033,18.0293077 336.925934,5.9994068 351.765569,5.9994068 C366.605204,5.9994068 378.635105,18.0293077 378.635105,32.8689426 C378.635105,47.7073429 366.603969,59.7384783 351.765569,59.7384783 Z M351.765569,8.40563388 C338.53132,8.40563388 327.703298,19.2336558 327.703298,32.4679047 C327.703298,45.7021537 338.53132,56.5301756 351.765569,56.5301756 C364.999818,56.5301756 375.82784,45.7021537 375.82784,32.4679047 C375.82784,19.2336558 364.999818,8.40563388 351.765569,8.40563388 Z" id="Shape" fill="#FFFFFF" fill-rule="nonzero"></path>
                <path d="M502.903289,12.0046806 C503.483117,14.2093796 502.180677,16.4710777 499.993998,17.0556846 L487.644369,20.3594447 C486.769553,20.5932874 486.248432,21.4979667 486.481088,22.3799924 C486.504281,22.4684142 486.534722,22.5553745 486.572411,22.638681 C488.017634,25.8525577 488.764889,29.3419304 488.764889,32.8707641 C488.764889,46.5578743 477.760463,57.6537141 464.185222,57.6537141 C460.684505,57.6537141 457.225102,56.9003019 454.036768,55.4424383 C441.672644,49.7914814 436.192538,35.1039626 441.798032,22.638681 C442.172022,21.8078084 441.80673,20.8285917 440.981923,20.452251 C440.899298,20.4142516 440.813048,20.3828289 440.725349,20.3594447 L428.375721,17.0556846 C426.189042,16.4710777 424.886601,14.2093796 425.467155,12.0046806 C426.046984,9.7992509 428.290196,8.4868083 430.476875,9.07141525 L450.580989,14.4490684 C451.263737,14.6317581 451.887778,14.9890991 452.392954,15.4867457 C454.011401,17.0797997 454.041842,19.695185 452.461809,21.3276999 C446.138051,27.8548365 446.261265,38.3156471 452.735778,44.6907858 C455.797274,47.7051654 459.906085,49.3924872 464.185222,49.3924872 C473.234899,49.3924872 480.571908,41.9957478 480.571908,32.8707641 C480.571908,28.5563648 478.898377,24.4136938 475.908635,21.3276999 C475.415056,20.8183611 475.060635,20.1884471 474.879439,19.5008032 C474.29961,17.2953735 475.60205,15.0344061 477.789455,14.4490684 L497.892843,9.07141525 C500.079522,8.4868083 502.322735,9.7992509 502.903289,12.0046806" id="Fill-1" fill="#FFFFFF"></path>
            </g>
        </g>
    </g>
</svg>