<svg xmlns="http://www.w3.org/2000/svg" xmlns:xlink="http://www.w3.org/1999/xlink" width="503" height="66" viewBox="0 0 503 66"><title>Logo_Family</title><defs><path id="a" d="M0 .205h65.223v65.506H0z"/></defs><g fill="none" fill-rule="evenodd"><path fill="#FFF" fill-rule="nonzero" d="M153.228 30.45c-2.209-3.093-4.417-6.185-7.068-8.835l-2.208 4.417c2.208 2.209 4.417 4.859 6.626 7.51a13.923 13.923 0 0 1 0 16.343c-2.65 3.975-7.51 6.184-11.927 6.184-4.858 0-9.276-2.209-11.926-6.184-3.534-5.3-3.534-11.927.442-17.227 1.325-2.65 10.16-17.669 11.484-19.877 2.209-2.65 2.209-6.184 0-8.834-8.392 15.901-13.251 22.969-15.46 26.502-4.858 6.626-4.858 15.46-.441 22.086 3.533 5.3 9.276 7.95 15.46 7.95 6.184.442 12.368-2.65 15.46-7.95 4.417-6.626 4.417-15.46-.442-22.086zm-24.294 17.668c3.975 5.3 11.042 6.184 16.343 2.208.883-.883 1.767-1.325 2.209-2.208 3.092-3.976 2.65-9.276-.442-13.252-1.767-2.208-3.092-3.975-5.3-6.184l-2.65 4.418c1.324 1.325 2.208 2.65 3.533 3.975 1.767 2.209 2.208 5.742.441 7.95-1.325 1.768-3.092 2.651-5.3 2.651-2.209 0-3.975-.883-5.3-2.65-1.326-2.209-1.326-4.86 0-7.068.441-.883 2.208-3.533 5.3-8.834l3.534-6.184c2.208-3.092 2.208-7.067.441-10.16-3.975 7.952-8.392 15.019-13.251 22.528-2.65 3.534-2.65 8.834.442 12.81zm6.625-4.86c.884 1.326 3.092 1.768 4.417.443.442 0 .442-.442.442-.442.884-.884.884-2.65 0-3.534l-2.208-3.975L136 40.167c-1.325.883-1.325 2.208-.442 3.092z"/><path fill="#FFF" d="M255.58 34.122c-.904 4.122-5.843 3.685-5.843 3.685s.4 6.193-4.95 6.254c-5.876.026-4.842-5.879-5.03-6.3a9.348 9.348 0 01-1.65-.032 6.453 6.453 0 01-1.326-.287 4.928 4.928 0 01-1.039-.485 4.318 4.318 0 01-1.353-1.331c-.333-.517-.582-1.08-.689-1.689a4.191 4.191 0 01.262-2.321c.191-.457.42-.885.745-1.264.218-.253.466-.478.737-.672.258-.185.534-.343.823-.474.273-.125.557-.227.847-.31a7.06 7.06 0 01.811-.178 7.984 7.984 0 011.615-.092l.078.005s-.376-6.194 4.976-6.23c5.874-.003 4.817 5.9 5.002 6.32 3.943-.233 5.361 1.723 5.87 3.237.146.43.205.884.2 1.338a4.023 4.023 0 01-.087.826M244.675 15.92c-9.515.003-17.229 7.755-17.228 17.317.003 9.56 7.721 17.308 17.238 17.304 9.517-.001 17.23-7.754 17.226-17.313-.002-9.56-7.72-17.31-17.236-17.308M227.018 15.362l2.01 2.343.69-.598c.35-.305.449-.693.287-1.164a2.436 2.436 0 00-.472-.784c-.313-.363-.615-.595-.895-.69-.282-.097-.593 0-.933.296l-.687.597zm.899-1.73c.323-.138.652-.16.997-.073.28.07.532.188.754.358.225.168.418.347.58.535.408.477.66.965.753 1.46.123.673-.082 1.242-.623 1.709l-1.541 1.335-3.08-3.589 1.54-1.335c.223-.189.43-.324.62-.4zM234.258 14.844l-.851.484-2.334-4.119.85-.484zM236.263 12.52c.095.196.207.329.325.402.216.131.514.132.888.005a1.81 1.81 0 00.524-.26c.232-.187.31-.404.222-.658a.414.414 0 00-.312-.28c-.156-.032-.385-.029-.692.006l-.518.058c-.511.057-.878.054-1.096-.01-.37-.103-.632-.375-.781-.817a1.355 1.355 0 01.103-1.152c.205-.368.588-.647 1.16-.842.478-.162.927-.177 1.35-.042.42.138.72.44.898.913l-.899.305c-.107-.265-.292-.414-.555-.454a1.303 1.303 0 00-.591.08c-.249.085-.427.2-.542.348a.482.482 0 00-.082.483.404.404 0 00.337.286c.11.018.331.013.658-.018l.849-.083c.367-.037.662-.017.878.062.34.119.576.379.715.781.136.408.093.803-.13 1.18-.224.382-.624.668-1.2.863-.59.203-1.095.226-1.522.077-.427-.152-.72-.462-.878-.93l.89-.304zM244.282 7.337l.075.837-1.405.127.357 3.887-.989.091-.356-3.886-1.411.13-.077-.835zM247.872 8.528l-.193 1.257 1.048.16c.208.033.368.032.48-.005.198-.06.318-.222.357-.483.045-.286-.016-.49-.18-.613-.093-.072-.238-.122-.437-.153l-1.075-.163zm2.118-.388c.159.099.289.232.387.396.079.132.14.276.174.43.04.153.042.32.011.506-.03.222-.12.432-.266.631a.955.955 0 01-.622.373c.202.12.335.265.4.439.065.173.074.426.023.752l-.048.314a2.537 2.537 0 00-.039.443.385.385 0 00.14.292l-.018.118-1.075-.164a3.934 3.934 0 01-.025-.26 2.726 2.726 0 01.017-.412l.06-.435c.043-.301.023-.507-.062-.622-.083-.115-.261-.192-.531-.234l-.952-.145-.279 1.839-.952-.147.709-4.688 2.231.34c.317.06.556.135.717.234zM252.845 13.756l-.923-.333 1.602-4.461.925.336zM257.226 11.28c.528-.134 1.042-.053 1.543.252.673.412 1.03.93 1.072 1.57.021.353-.04.662-.18.924l-.844-.512c.063-.228.083-.418.059-.567-.043-.266-.214-.489-.51-.67a.95.95 0 00-.935-.058c-.323.142-.622.441-.896.899-.273.451-.386.85-.34 1.185.048.34.213.593.493.765.291.175.569.211.837.11.148-.052.312-.169.494-.345l.84.51c-.34.398-.741.646-1.205.743-.465.098-.928.004-1.392-.277-.572-.348-.913-.81-1.02-1.385-.1-.575.045-1.19.441-1.846.427-.708.94-1.14 1.543-1.297M265.266 16.689l-.591.592-.996-1.008-2.754 2.753-.699-.707 2.755-2.753-1.001-1.01.593-.592z"/><g transform="translate(212.396)"><mask id="b" fill="#fff"><use xlink:href="#a"/></mask><path fill="#FFF" d="M30.944 2.56L30.818.255a31.98 31.98 0 0 1 1.795-.049l.56.004-.043 2.31-.517-.003c-.557 0-1.116.015-1.669.045zm8.69.776a30.492 30.492 0 0 0-2.145-.429l.367-2.28c.78.126 1.55.28 2.31.46l-.532 2.249zm-15.156.292l-.616-2.225A31.68 31.68 0 0 1 26.151.85l.455 2.265c-.717.144-1.428.317-2.128.512zm21.335 1.914a29.012 29.012 0 0 0-2.005-.885l.849-2.147c.732.291 1.454.608 2.16.953l-1.004 2.08zm-27.415.529l-1.084-2.04a32.96 32.96 0 0 1 2.117-1.034l.932 2.11c-.67.3-1.325.62-1.965.964zm32.974 2.965a29.608 29.608 0 0 0-1.768-1.297l1.288-1.914c.651.444 1.288.909 1.902 1.397l-1.422 1.814zm-38.395.736l-1.491-1.76c.598-.512 1.213-1 1.849-1.468l1.359 1.865c-.59.432-1.16.888-1.717 1.363zm43.082 3.873a32.91 32.91 0 0 0-1.453-1.65l1.667-1.59c.54.571 1.059 1.162 1.56 1.769l-1.774 1.47zm-47.587.91l-1.83-1.398c.475-.63.974-1.238 1.491-1.83l1.727 1.526c-.482.55-.944 1.118-1.388 1.703zm51.182 4.598a31.85 31.85 0 0 0-1.07-1.925l1.969-1.195c.403.671.786 1.358 1.146 2.061l-2.045 1.059zM5.089 20.2l-2.087-.972c.33-.718.688-1.422 1.068-2.11l2.012 1.118A30.215 30.215 0 0 0 5.09 20.2zm56.886 5.1a28.745 28.745 0 0 0-.625-2.104l2.18-.743c.25.745.473 1.501.675 2.269l-2.23.579zM3 26.44l-2.245-.494c.169-.774.363-1.538.585-2.293l2.205.658c-.205.699-.388 1.41-.545 2.13zm59.925 5.375a30.659 30.659 0 0 0-.159-2.195l2.286-.248a34.4 34.4 0 0 1 .172 2.356l-2.3.087zM.587 33.081L0 33.047c-.001-.855.026-1.643.084-2.424l2.293.165c-.052.727-.078 1.46-.078 2.198l-1.712.095zm64.146 5.712l-2.266-.407c.128-.718.232-1.444.311-2.18l2.286.244c-.082.79-.196 1.57-.331 2.343zM.785 40.158a32.216 32.216 0 0 1-.43-2.33l2.275-.338c.109.73.241 1.45.398 2.163l-2.243.505zm61.956 5.431l-2.12-.89c.28-.676.534-1.361.766-2.06l2.185.732c-.25.75-.53 1.49-.831 2.218zM3.06 46.858a32.149 32.149 0 0 1-.92-2.181l2.15-.82c.259.687.544 1.359.853 2.02l-2.083.98zm56.275 4.94l-1.88-1.326c.417-.604.815-1.22 1.193-1.848l1.973 1.187a33.489 33.489 0 0 1-1.286 1.987zM6.723 52.912a32.727 32.727 0 0 1-1.367-1.932l1.923-1.268c.402.612.824 1.21 1.266 1.79l-1.822 1.41zm47.965 4.21l-1.558-1.7c.54-.498 1.06-1.013 1.558-1.546l1.676 1.584a32.89 32.89 0 0 1-1.676 1.662zm-43.099.91c-.6-.512-1.181-1.041-1.742-1.59l1.606-1.657a31.627 31.627 0 0 0 1.621 1.481l-1.485 1.765zm37.424 3.292l-1.16-1.994a32.156 32.156 0 0 0 1.854-1.178l1.297 1.91c-.647.444-1.308.862-1.991 1.262zm-31.575.669c-.699-.37-1.38-.763-2.047-1.183l1.22-1.96c.62.39 1.254.755 1.9 1.097l-1.073 2.046zm25.134 2.211l-.703-2.202a29.729 29.729 0 0 0 2.063-.745l.853 2.143c-.725.293-1.464.562-2.213.804zM24 64.596a29.696 29.696 0 0 1-2.252-.71l.772-2.175c.685.243 1.38.461 2.084.655L24 64.596zm11.662 1.018l-.212-2.302a30.48 30.48 0 0 0 2.173-.28l.378 2.28c-.77.129-1.552.228-2.34.302zm-4.702.097a30.688 30.688 0 0 1-2.345-.203l.282-2.293c.72.088 1.447.152 2.179.19l-.116 2.306z" mask="url(#b)"/></g><path fill="#FFF" d="M232.901 52.696l-1.987-1.38-.556.801 1.824 1.266-.455.656-1.824-1.267-.673.97 2.078 1.443-.47.678-2.846-1.975 2.619-3.772 2.754 1.911z"/><path fill="#FFF" d="M228.04 53.88l2.79 1.936.431-.622-2.079-1.443.712-1.026 1.825 1.266.415-.6-1.823-1.265.595-.857 1.986 1.379.425-.612-2.698-1.873-2.58 3.717zm2.806 2.03l-2.901-2.013 2.657-3.829 2.81 1.951-.502.724-1.988-1.38-.517.746 1.824 1.266-.494.711-1.823-1.266-.635.914 2.079 1.443-.51.734zM235.446 53.92l-1.088 2.793.821.32c.42.164.796.07 1.124-.28.18-.194.33-.448.454-.763.17-.436.232-.797.187-1.083-.045-.286-.27-.508-.676-.666l-.822-.32zm1.885-.014c.26.216.432.49.515.826.065.271.076.54.034.81-.043.268-.108.515-.195.74-.222.568-.524 1.006-.905 1.312-.516.412-1.096.492-1.74.24l-1.836-.715 1.668-4.278 1.836.716c.263.106.47.223.623.35z"/><path fill="#FFF" d="M234.402 56.693l.79.309c.41.16.765.07 1.086-.273.175-.189.326-.442.447-.752.167-.427.229-.786.185-1.064-.043-.273-.263-.488-.654-.64l-.79-.308-1.064 2.728zm1.164.452c-.128 0-.261-.026-.399-.08l-.854-.333.013-.032 1.101-2.824.854.333c.415.162.65.395.696.693.046.29-.018.66-.189 1.1a2.41 2.41 0 01-.46.773c-.23.247-.485.37-.762.37zm-2.318-.045l1.805.703c.628.246 1.203.166 1.706-.236.375-.3.675-.738.894-1.298.086-.221.151-.468.193-.733.042-.263.03-.53-.034-.796a1.483 1.483 0 00-.502-.807 2.37 2.37 0 00-.614-.345l-1.804-.703-1.644 4.215zm2.495.91c-.23 0-.468-.047-.715-.143l-1.868-.728.012-.032 1.68-4.31.033.012 1.836.716c.265.108.478.227.632.355.265.219.442.503.526.844.066.274.078.55.034.823-.042.27-.109.52-.196.747-.223.571-.532 1.018-.916 1.326-.326.26-.68.39-1.058.39zM240.114 59.228l-.932-.176.852-4.512.932.176z"/><path fill="#FFF" d="M239.221 59.025l.866.163.84-4.445-.866-.163-.84 4.445zm.92.243l-1-.189.007-.033.858-4.546 1 .189-.007.033-.858 4.546zM243.794 55.801l-.017 1.012 1.11.018a.916.916 0 00.486-.105c.125-.074.19-.207.192-.4.004-.214-.076-.357-.238-.428-.14-.05-.32-.077-.54-.08l-.993-.017zm-.03 1.773l-.02 1.224 1.11.018c.198.003.353-.021.464-.074.202-.096.305-.286.31-.568.004-.239-.09-.404-.283-.497a1.145 1.145 0 00-.455-.085l-1.125-.018zm2.516-2.04c.137.197.203.431.198.704-.004.28-.078.504-.222.672-.08.094-.198.18-.353.256.232.089.406.227.521.413.116.187.172.412.167.676a1.344 1.344 0 01-.215.729 1.268 1.268 0 01-.85.578 3.121 3.121 0 01-.646.052l-2.06-.034.075-4.591 2.209.036c.557.017.95.187 1.176.508z"/><path fill="#FFF" d="M243.812 56.78l1.076.017c.192.001.35-.03.468-.1.115-.069.172-.19.175-.372.003-.2-.068-.33-.218-.396a1.683 1.683 0 00-.526-.078l-.96-.015-.015.944zm1.1.086h-.025l-1.145-.02.018-1.08 1.028.017c.222.004.407.031.55.082.178.079.265.233.261.46-.003.206-.073.35-.209.43a.933.933 0 01-.478.11zm-1.133 1.898l1.076.018c.19.005.343-.02.449-.07.19-.092.286-.268.29-.539.004-.226-.083-.378-.264-.465a1.123 1.123 0 00-.441-.082l-1.09-.018-.02 1.156zm1.109.086h-.034l-1.144-.019.021-1.292 1.16.019c.2.005.357.035.469.089.205.098.306.275.302.527-.005.296-.115.497-.329.6-.109.05-.259.076-.445.076zm-2.033.697l2.025.033c.229.003.444-.014.64-.051a1.23 1.23 0 00.827-.563c.135-.208.206-.447.21-.711a1.19 1.19 0 00-.162-.658.99.99 0 00-.504-.4l-.073-.027.07-.035c.15-.074.265-.157.342-.247.138-.161.21-.38.215-.651a1.146 1.146 0 00-.193-.684c-.22-.311-.606-.477-1.15-.494l-2.173-.035-.074 4.523zm2.089.101h-.065l-2.093-.034.075-4.66 2.243.037c.567.017.971.193 1.204.522.14.203.209.447.205.725-.005.287-.083.52-.231.694-.071.083-.172.16-.299.23.205.092.363.226.47.4.12.19.177.424.173.694-.005.278-.08.529-.222.746a1.296 1.296 0 01-.871.594c-.182.034-.38.052-.59.052zM248.207 54.789l.931-.21.83 3.674 2.226-.502.182.805-3.158.713z"/><path fill="#FFF" d="M248.247 54.815l.997 4.413 3.091-.698-.167-.739-2.226.503-.008-.033-.822-3.641-.865.195zm.945 4.495l-.007-.034-1.02-4.512.999-.226.008.034.821 3.64 2.227-.502.197.872-.034.007-3.19.72zM256.2 52.846l-2.184 1.039.418.88 2.005-.954.343.721-2.005.953.507 1.067 2.285-1.087.355.745-3.128 1.488-1.973-4.147 3.028-1.44z"/><path fill="#FFF" d="M252.869 53.567l1.943 4.086 3.066-1.459-.325-.684-2.285 1.087-.537-1.128 2.006-.953-.314-.66-2.005.955-.448-.943 2.184-1.039-.32-.672-2.965 1.41zm1.91 4.177l-.014-.031-1.987-4.178 3.089-1.47.378.797-2.184 1.039.39.819 2.005-.954.372.782-2.006.954.478 1.004 2.286-1.087.383.808-.03.014-3.16 1.503zM259.823 53.244c.153.146.296.233.428.26.242.05.513-.045.814-.283.18-.144.311-.28.393-.408.154-.244.15-.467-.012-.67a.393.393 0 00-.375-.152c-.155.02-.365.095-.631.226l-.455.222c-.449.218-.783.334-1.005.348-.372.025-.699-.138-.98-.492a1.323 1.323 0 01-.283-1.083c.068-.4.33-.782.787-1.145.382-.304.788-.462 1.217-.475.429-.013.802.167 1.118.538l-.719.57c-.185-.205-.403-.282-.655-.231a1.26 1.26 0 00-.517.264c-.198.156-.324.32-.38.492a.474.474 0 00.082.468.394.394 0 00.403.149c.108-.017.307-.093.594-.228l.747-.35c.327-.154.602-.23.826-.23.348-.001.649.16.903.48.261.328.351.702.27 1.12-.08.417-.35.81-.812 1.176-.472.374-.927.561-1.367.561-.44.001-.809-.186-1.105-.56l.714-.567z"/><path fill="#FFF" d="M259.157 53.816c.284.346.64.521 1.055.521h.002c.43 0 .882-.186 1.345-.554.453-.36.723-.748.801-1.156a1.293 1.293 0 0 0-.263-1.092c-.247-.31-.541-.468-.876-.468h-.001c-.217 0-.49.077-.812.227l-.746.35c-.293.138-.49.214-.603.232a.427.427 0 0 1-.435-.162.508.508 0 0 1-.089-.5c.058-.176.19-.348.392-.508.18-.144.36-.235.531-.27a.687.687 0 0 1 .666.218l.666-.528c-.293-.332-.638-.5-1.027-.5h-.041c-.42.013-.823.17-1.196.467-.449.356-.71.734-.775 1.124-.065.39.028.745.276 1.057.272.343.596.503.951.479.216-.014.55-.13.992-.344l.455-.223c.268-.132.484-.21.641-.229a.428.428 0 0 1 .407.164c.17.215.175.454.013.71-.083.132-.217.271-.4.416-.307.245-.59.343-.842.29-.131-.027-.274-.11-.423-.248l-.664.527zm1.055.59c-.448 0-.828-.193-1.13-.574l-.022-.027.765-.606.021.02c.148.141.287.226.412.252.232.048.495-.046.786-.277.176-.14.306-.275.385-.399.146-.232.143-.439-.01-.632a.359.359 0 0 0-.344-.138c-.15.019-.359.093-.62.223l-.455.222c-.45.219-.793.337-1.018.351-.381.024-.722-.143-1.008-.504a1.36 1.36 0 0 1-.29-1.11c.068-.408.337-.8.799-1.167.385-.306.802-.468 1.236-.482.436-.015.824.172 1.146.55l.023.027-.772.612-.021-.023c-.178-.198-.38-.27-.623-.222-.161.034-.33.12-.503.257-.191.152-.315.313-.369.477a.438.438 0 0 0 .077.435.36.36 0 0 0 .37.138c.106-.017.303-.093.586-.226l.746-.35c.33-.155.613-.234.84-.234h.002c.356 0 .669.166.929.493.266.336.36.722.277 1.148-.082.424-.36.826-.825 1.196-.476.378-.943.57-1.388.57h-.002z"/><ellipse cx="56.059" cy="53.324" fill="#FFF" fill-rule="nonzero" rx="3.975" ry="3.578"/><path fill="#FFF" fill-rule="nonzero" d="M58.841 33.447v-1.59c0-4.77.398-8.349-5.565-9.144C47.313 9.594 31.41 3.631 18.292 9.992c-5.565 2.783-10.336 7.156-12.72 12.721-5.964.795-5.566 5.168-5.566 9.541v1.193c0 4.373 0 8.348 5.565 9.143 5.963 13.119 21.865 19.082 34.984 12.721 5.565-2.782 10.336-7.155 12.72-12.72 5.566-1.193 5.566-4.771 5.566-9.144zm-29.02 9.54c-7.95 0-16.3-.794-24.25-2.385-1.59-.397-2.783-1.59-2.783-3.577v-8.746c0-1.59 1.193-3.18 2.783-3.578 7.95-1.193 15.504-1.59 23.455-1.988 7.95 0 15.901.795 23.852 1.988 1.988.397 3.18 1.988 3.18 3.578v8.746c0 1.59-1.192 3.18-2.782 3.577-7.951 1.59-15.504 2.386-23.455 2.386z"/><ellipse cx="29.423" cy="32.652" fill="#FFF" fill-rule="nonzero" rx="13.516" ry="5.566"/><path fill="#FFF" fill-rule="nonzero" d="M342.14 24.046c1.204 0 2.006.802 2.006 1.604 0 1.203-.802 2.005-1.604 2.005h-.401c-1.203 0-2.006-.802-2.006-1.604v-.4c-.4-.803.803-1.605 2.006-1.605zm0 12.833c1.204 0 2.006.802 2.006 1.604v.402c0 1.203-.802 2.005-1.604 2.005h-.401c-1.203 0-2.006-.802-2.006-1.604v-.401c0-1.204.803-2.006 2.006-2.006zm8.021-14.838h9.625c4.01-.401 7.219 2.807 7.62 6.818v1.203c0 4.01-3.208 7.218-7.219 7.62h-6.817v6.416h-3.209V22.041zm3.209 2.807v9.625h6.015c2.407 0 4.412-1.604 4.813-4.411v-.401c0-2.407-1.604-4.412-4.01-4.813h-6.818z"/><path fill="#FFF" fill-rule="nonzero" d="M351.766 59.738c-14.84 0-26.87-12.03-26.87-26.87C324.896 18.03 336.926 6 351.766 6c14.84 0 26.87 12.03 26.87 26.87 0 14.838-12.032 26.87-26.87 26.87zm0-51.332c-13.235 0-24.063 10.828-24.063 24.062 0 13.234 10.828 24.062 24.063 24.062 13.234 0 24.062-10.828 24.062-24.062 0-13.234-10.828-24.062-24.062-24.062z"/><path fill="#FFF" d="M502.903 12.005c.58 2.204-.722 4.466-2.909 5.05l-12.35 3.304a1.653 1.653 0 0 0-1.072 2.28 24.954 24.954 0 0 1 2.193 10.232c0 13.687-11.005 24.783-24.58 24.783-3.5 0-6.96-.754-10.148-2.212-12.364-5.65-17.844-20.338-12.239-32.803a1.656 1.656 0 0 0-1.073-2.28l-12.35-3.303c-2.186-.585-3.488-2.847-2.908-5.051.58-2.206 2.823-3.518 5.01-2.934l20.104 5.378c.683.183 1.307.54 1.812 1.038a4.156 4.156 0 0 1 .069 5.84c-6.324 6.528-6.2 16.989.274 23.364a16.317 16.317 0 0 0 11.45 4.701c9.049 0 16.386-7.396 16.386-16.521a16.59 16.59 0 0 0-4.663-11.543 4.142 4.142 0 0 1-1.03-1.827c-.58-2.206.723-4.467 2.91-5.052l20.104-5.378c2.187-.584 4.43.728 5.01 2.934"/></g></svg>