<?xml version="1.0" encoding="UTF-8"?>
<svg width="280px" height="284px" viewBox="0 0 280 284" version="1.1" xmlns="http://www.w3.org/2000/svg" xmlns:xlink="http://www.w3.org/1999/xlink">
    <!-- Generator: Sketch 60 (88103) - https://sketch.com -->
    <title>Logo_Large</title>
    <desc>Created with Sketch.</desc>
    <g id="Web" stroke="none" stroke-width="1" fill="none" fill-rule="evenodd">
        <g id="Loil_Signup_BRD_v10" transform="translate(-218.000000, -227.000000)">
            <g id="Logo_Large" transform="translate(218.000000, 227.000000)">
                <g id="Group-30" transform="translate(57.800002, 0.000000)" fill="#FFFFFF">
                    <path d="M88.471126,1.5312196e-12 C133.331387,1.53718975e-12 169.697814,36.366427 169.697814,81.2266881 L169.697814,88.471126 C169.697814,133.331387 133.331387,169.697814 88.471126,169.697814 L1.5312196e-12,169.697814 L1.5312196e-12,81.2266881 C1.53993665e-12,36.366427 36.366427,1.55367115e-12 81.2266881,1.5312196e-12 L88.471126,1.5312196e-12 Z M114.905431,91.6881135 L58.0050686,91.6881135 L58.0050686,91.7077365 C44.0060777,92.1407489 32.8838068,104.198815 34.007546,118.53314 C34.9503183,130.561553 44.6366275,140.301063 56.6606806,141.304012 C70.8890416,142.490544 82.9135307,131.608545 83.6020771,117.791829 L83.6339099,117.791829 L83.6339099,108.004353 L71.2064968,108.004353 L71.2064968,116.515904 L71.207805,116.540323 C71.207805,123.392211 65.6331516,128.966428 58.7817002,128.966428 C51.9298127,128.966428 46.3555953,123.392211 46.3555953,116.540323 C46.3555953,109.747305 51.8369308,104.217566 58.6077103,104.12294 L58.6077103,104.109422 L71.2064968,104.109422 L83.6339099,104.114218 L114.905431,104.114218 C118.336825,104.114218 121.118483,101.332561 121.118483,97.901166 C121.118483,94.4697714 118.336825,91.6881135 114.905431,91.6881135 Z M95.4421108,35.2290491 C82.1037582,35.5543535 71.207805,47.2417644 71.207805,60.5844777 L71.207805,87.5973889 L83.6339099,87.5973889 L83.6339099,84.9260554 L83.6395787,72.4995145 L83.6395787,60.189839 L83.6339099,60.0738457 L83.6339099,60.0738457 C83.6339099,53.2219582 89.2081273,47.6477408 96.0600147,47.6477408 C102.911466,47.6477408 108.48612,53.2219582 108.48612,60.0738457 C108.48612,66.8213184 103.079594,72.3298221 96.37148,72.4956698 L96.0656836,72.4995145 L87.7551591,72.4995145 L87.7551591,84.9260554 L95.5493828,84.9260554 C108.890788,84.9260554 120.578635,74.0309744 120.904811,60.6930578 C121.251919,46.5013263 109.634278,34.8828136 95.4421108,35.2290491 Z M67.3207227,72.4995145 L40.19051,72.4995145 C36.7586794,72.4995145 33.9770215,75.2816084 33.9770215,78.713003 C33.9770215,82.1443976 36.7586794,84.9260554 40.19051,84.9260554 L67.3207227,84.9260554 L67.3207227,72.4995145 Z" id="Combined-Shape"></path>
                </g>
                <g id="Group-6" transform="translate(0.000000, 201.789688)">
                    <g id="Group-2">
                        <g id="Group-4" transform="translate(5.099581, 0.510318)">
                            <g id="Group-3"></g>
                        </g>
                        <path d="M267.917735,60.285208 C262.220967,60.285208 257.642609,56.1906561 256.115792,51.5368994 C255.396365,49.4456411 257.084451,47.2800315 259.168379,46.7962251 C261.335036,46.3982892 262.860807,47.9251067 263.903818,49.9294475 C265.026416,52.0144226 265.994029,52.3369602 267.917735,52.3369602 C270.162932,52.3369602 272.012287,50.4938882 272.012287,48.1617739 C272.012287,45.91553 270.162932,44.072458 267.917735,44.072458 C264.709114,44.072458 261.656527,42.7875436 259.41133,40.5350165 C257.084451,38.2898198 255.880172,35.2372319 255.880172,32.0286111 C255.880172,25.3652777 261.253355,19.9858115 267.917735,19.9858115 C273.539105,19.9858115 278.676668,23.8384602 279.476728,28.3372312 C279.8799,30.5028408 278.596033,32.6684503 276.430424,33.0716223 C274.258531,33.5554287 272.416506,32.1092455 271.689749,30.0986216 C271.212226,28.8147544 269.846678,27.9340592 267.917735,27.9340592 C265.671491,27.9340592 263.822136,29.7823672 263.822136,32.0286111 C263.822136,34.2748551 265.671491,36.1242102 267.917735,36.1242102 C271.131592,36.1242102 274.177897,37.4080774 276.430424,39.6543213 C278.756255,41.9811997 279.960535,44.9531532 279.960535,48.1617739 C279.960535,54.8251073 274.581069,60.285208 267.917735,60.285208 Z M248.744551,27.9340592 L243.043594,27.9340592 L243.043594,56.2702433 C243.043594,58.4358528 241.28011,60.285208 239.034913,60.285208 C236.86302,60.285208 235.10163,58.4358528 235.10163,56.2702433 L235.10163,27.9340592 L229.317944,27.9340592 C227.152335,27.9340592 225.383614,26.0909873 225.383614,23.9190946 C225.383614,21.753485 227.152335,19.9858115 229.317944,19.9858115 L235.10163,19.9858115 L235.10163,3.93433029 C235.10163,1.76872075 236.86302,5.5067062e-13 239.034913,5.5067062e-13 C241.28011,5.5067062e-13 243.043594,1.76872075 243.043594,3.93433029 L243.043594,19.9858115 L248.744551,19.9858115 C250.991842,19.9858115 252.759516,21.753485 252.759516,23.9190946 C252.759516,26.0909873 250.991842,27.9340592 248.744551,27.9340592 Z M225.726048,56.1906561 C225.726048,58.4358528 223.957328,60.2045736 221.711084,60.2045736 C219.545474,60.2045736 217.777801,58.4358528 217.777801,56.1906561 L217.777801,40.0574933 C217.777801,33.3135255 212.3177,27.8534249 205.578968,27.8534249 C198.835,27.8534249 193.3749,33.3135255 193.3749,40.0574933 L193.3749,56.1906561 C193.3749,58.4358528 191.611415,60.2045736 189.359935,60.2045736 C187.195373,60.2045736 185.425605,58.4358528 185.425605,56.1906561 L185.425605,40.0574933 C185.425605,28.8953888 194.497498,19.9051771 205.578968,19.9051771 C216.654155,19.9051771 225.726048,28.8953888 225.726048,40.0574933 L225.726048,56.1906561 Z M172.911565,23.9190946 C172.911565,21.753485 174.679238,19.9858115 176.925482,19.9858115 C179.091092,19.9858115 180.859813,21.753485 180.859813,23.9190946 L180.859813,56.2702433 C180.859813,58.5164872 179.091092,60.285208 176.925482,60.285208 C174.679238,60.285208 172.911565,58.5164872 172.911565,56.2702433 L172.911565,23.9190946 Z M172.911565,8.02888218 C172.911565,6.98063501 173.395371,5.93867104 174.114798,5.21819746 C174.841554,4.49248788 175.883518,4.01496469 176.925482,4.01496469 C177.968494,4.01496469 179.010458,4.49248788 179.737214,5.21819746 C180.456641,5.93867104 180.859813,6.98063501 180.859813,8.02888218 C180.859813,9.07189336 180.456641,10.1138573 179.737214,10.8343309 C179.010458,11.5600405 177.968494,11.9632125 176.925482,11.9632125 C175.883518,11.9632125 174.841554,11.5600405 174.114798,10.8343309 C173.395371,10.1138573 172.911565,9.07189336 172.911565,8.02888218 Z M148.210212,52.2563258 C154.948944,52.2563258 160.409044,46.7155907 160.409044,40.0574933 C160.409044,33.3135255 154.948944,27.8534249 148.210212,27.8534249 C141.466244,27.8534249 136.006144,33.3135255 136.006144,40.0574933 C136.006144,46.7155907 141.466244,52.2563258 148.210212,52.2563258 Z M148.210212,19.9051771 C159.366033,19.9051771 168.357292,28.8953888 168.357292,40.0574933 C168.357292,51.1326802 159.366033,60.2045736 148.210212,60.2045736 C137.128742,60.2045736 128.057896,51.1326802 128.057896,40.0574933 C128.057896,28.8953888 137.128742,19.9051771 148.210212,19.9051771 Z M91.0718399,40.4554293 C91.0718399,47.1187627 96.5319406,52.5788634 103.276956,52.5788634 C110.020923,52.5788634 115.474741,47.1187627 115.474741,40.3737477 C115.474741,33.7166975 110.020923,28.1759624 103.276956,28.1759624 C96.5319406,28.1759624 91.0718399,33.6360631 91.0718399,40.3737477 L91.0718399,40.4554293 Z M91.0718399,78.1173236 C91.0718399,80.2892163 89.3094024,82.0506067 87.1385569,82.0506067 C84.8912657,82.0506067 83.1235922,80.2892163 83.1235922,78.1173236 L83.1235922,40.4554293 L83.1235922,40.3737477 C83.1235922,29.2985608 92.1944383,20.2277147 103.276956,20.2277147 C114.43173,20.2277147 123.422989,29.2985608 123.422989,40.3737477 C123.422989,51.5368994 114.43173,60.5271112 103.276956,60.5271112 C98.6975501,60.5271112 94.4469655,59.0002936 91.0718399,56.4315121 L91.0718399,78.1173236 Z M70.2859677,4.01496469 C70.2859677,1.84307195 72.0536413,0.0806343978 74.3009324,0.0806343978 C76.4654947,0.0806343978 78.2342155,1.84307195 78.2342155,4.01496469 L78.2342155,56.2702433 C78.2342155,58.5164872 76.4654947,60.285208 74.3009324,60.285208 C72.0536413,60.285208 70.2859677,58.5164872 70.2859677,56.2702433 L70.2859677,4.01496469 Z M57.3677089,23.9190946 C57.3677089,21.753485 59.1364296,19.9858115 61.3826735,19.9858115 C63.5472359,19.9858115 65.3159566,21.753485 65.3159566,23.9190946 L65.3159566,56.2702433 C65.3159566,58.5164872 63.5472359,60.285208 61.3826735,60.285208 C59.1364296,60.285208 57.3677089,58.5164872 57.3677089,56.2702433 L57.3677089,23.9190946 Z M57.3677089,8.02888218 C57.3677089,6.98063501 57.8515152,5.93867104 58.5709416,5.21819746 C59.2976984,4.49248788 60.3396624,4.01496469 61.3826735,4.01496469 C62.4246375,4.01496469 63.4666015,4.49248788 64.1933583,5.21819746 C64.9127847,5.93867104 65.3159566,6.98063501 65.3159566,8.02888218 C65.3159566,9.07189336 64.9127847,10.1138573 64.1933583,10.8343309 C63.4666015,11.5600405 62.4246375,11.9632125 61.3826735,11.9632125 C60.3396624,11.9632125 59.2976984,11.5600405 58.5709416,10.8343309 C57.8515152,10.1138573 57.3677089,9.07189336 57.3677089,8.02888218 Z M32.6674031,52.2563258 C39.4061349,52.2563258 44.8662356,46.7155907 44.8662356,40.0574933 C44.8662356,33.3135255 39.4061349,27.8534249 32.6674031,27.8534249 C25.9234353,27.8534249 20.4622874,33.3135255 20.4622874,40.0574933 C20.4622874,46.7155907 25.9234353,52.2563258 32.6674031,52.2563258 Z M32.6674031,19.9051771 C43.8232244,19.9051771 52.8134362,28.8953888 52.8134362,40.0574933 C52.8134362,51.1326802 43.8232244,60.2045736 32.6674031,60.2045736 C21.585933,60.2045736 12.5140397,51.1326802 12.5140397,40.0574933 C12.5140397,28.8953888 21.585933,19.9051771 32.6674031,19.9051771 Z M6.53699317e-13,4.01496469 C6.53699317e-13,1.84307195 1.76767355,0.0806343978 4.01391749,0.0806343978 C6.17952703,0.0806343978 7.94824779,1.84307195 7.94824779,4.01496469 L7.94824779,56.2702433 C7.94824779,58.5164872 6.17952703,60.285208 4.01391749,60.285208 C1.76767355,60.285208 6.53699317e-13,58.5164872 6.53699317e-13,56.2702433 L6.53699317e-13,4.01496469 Z" id="Fill-1" fill="#FFFFFF"></path>
                    </g>
                    <path d="M273.516431,82.1103199 C271.818319,82.1103199 270.456374,80.9572738 270.002392,79.6452381 C269.787183,79.0583139 270.288291,78.4476155 270.910356,78.3109142 C271.555984,78.1994729 272.009966,78.6288934 272.319427,79.1935294 C272.654023,79.7819395 272.941492,79.8710925 273.516431,79.8710925 C274.185622,79.8710925 274.733857,79.352519 274.733857,78.6957582 C274.733857,78.0627715 274.185622,77.5427121 273.516431,77.5427121 C272.559771,77.5427121 271.651807,77.1816422 270.982616,76.5471697 C270.288291,75.9156689 269.931703,75.0568279 269.931703,74.1519245 C269.931703,72.2767387 271.53085,70.759651 273.516431,70.759651 C275.189409,70.759651 276.717867,71.8458323 276.95821,73.1118056 C277.077597,73.7239898 276.695875,74.3332023 276.048676,74.4461295 C275.403048,74.581345 274.854814,74.1756986 274.639604,73.6095767 C274.495084,73.2485069 274.088228,73.0003642 273.516431,73.0003642 C272.845669,73.0003642 272.297435,73.5189378 272.297435,74.1519245 C272.297435,74.7849111 272.845669,75.3049706 273.516431,75.3049706 C274.471521,75.3049706 275.381056,75.6675263 276.048676,76.299027 C276.743001,76.9557878 277.099589,77.7923406 277.099589,78.6957582 C277.099589,80.5724298 275.500442,82.1103199 273.516431,82.1103199 Z M262.520331,72.9305277 C260.512758,72.9305277 258.888477,74.4684178 258.888477,76.3673777 C258.888477,78.2440494 260.512758,79.8042277 262.520331,79.8042277 C264.526334,79.8042277 266.153757,78.2663377 266.153757,76.3673777 C266.153757,74.4684178 264.526334,72.9305277 262.520331,72.9305277 Z M266.153757,66.2173031 C266.153757,65.6066048 266.679999,65.1103195 267.324056,65.1103195 C267.993247,65.1103195 268.517918,65.6066048 268.517918,66.2173031 L268.517918,76.3450895 L268.517918,76.3673777 C268.517918,79.4862485 265.819161,82.0419693 262.520331,82.0419693 C259.197938,82.0419693 256.521174,79.4862485 256.521174,76.3673777 C256.521174,73.2262186 259.197938,70.6927862 262.520331,70.6927862 C263.882277,70.6927862 265.14997,71.1236926 266.153757,71.8458323 L266.153757,66.2173031 Z M255.374437,73.0003642 C253.366864,73.0003642 251.742583,74.5352826 251.742583,76.4357284 L251.742583,80.9795621 C251.742583,81.5902605 251.216341,82.1103199 250.570713,82.1103199 C249.901522,82.1103199 249.37528,81.5902605 249.37528,80.9795621 L249.37528,76.4357284 C249.37528,73.2930834 252.077178,70.759651 255.374437,70.759651 C256.043629,70.759651 256.569871,71.2574222 256.569871,71.8681205 C256.569871,72.4788189 256.043629,73.0003642 255.374437,73.0003642 Z M242.061302,73.0003642 C240.052158,73.0003642 238.355617,74.6051191 238.355617,76.5040791 C238.355617,78.403039 240.052158,79.8502901 242.061302,79.8502901 C244.068876,79.8502901 245.598905,78.403039 245.598905,76.5040791 C245.598905,74.6051191 244.068876,73.0003642 242.061302,73.0003642 Z M247.941074,80.9349856 C247.941074,81.5902605 247.438395,82.0657434 246.74407,82.0657434 C246.266525,82.0657434 245.598905,81.5902605 245.598905,80.9349856 C244.569984,81.7477642 243.423248,82.0657434 242.061302,82.0657434 C238.690212,82.0657434 236.013447,79.6913005 236.013447,76.5040791 C236.013447,73.3153717 238.690212,70.7834251 242.061302,70.7834251 C245.429251,70.7834251 247.941074,73.3153717 247.941074,76.5040791 L247.941074,80.9349856 Z M231.973166,81.3421178 C231.783091,81.7700525 231.329109,82.0865458 230.82643,82.0865458 C230.323751,82.0865458 229.87134,81.7938266 229.701686,81.3421178 L227.216568,75.0791162 L224.755012,81.3421178 C224.564937,81.7700525 224.110955,82.0865458 223.609847,82.0865458 C223.105597,82.0865458 222.653186,81.7938266 222.485103,81.3421178 L218.900374,72.2990269 C218.661602,71.7121027 218.971064,71.0553419 219.593129,70.8517758 C220.191631,70.6259214 220.884385,70.9186406 221.099594,71.5070507 L223.609847,77.8146289 L226.094965,71.5531131 C226.214352,71.2366198 226.453124,70.964703 226.811283,70.8517758 C226.930669,70.8057134 227.050055,70.7834251 227.169442,70.7834251 L227.216568,70.7834251 L227.241702,70.7834251 L227.288828,70.7834251 L227.312391,70.7834251 L227.337525,70.7834251 L227.361088,70.7834251 L227.384651,70.7834251 L227.431777,70.7834251 C227.431777,70.7834251 227.431777,70.8057134 227.456911,70.8057134 L227.480474,70.8057134 L227.504037,70.8057134 C227.529171,70.8057134 227.529171,70.8057134 227.551163,70.8294875 L227.601431,70.8294875 C227.623423,70.8517758 227.623423,70.8517758 227.646986,70.8517758 C227.983153,70.964703 228.245488,71.2366198 228.339741,71.5531131 L230.82643,77.8146289 L233.336683,71.5070507 C233.573884,70.9186406 234.244646,70.6259214 234.866711,70.8517758 C235.462072,71.0553419 235.774675,71.7121027 235.557895,72.2990269 L231.973166,81.3421178 Z M215.816754,75.2826823 C215.314075,73.7002157 213.785617,72.9765901 212.351412,72.9765901 C210.749123,72.9765901 209.41074,73.9483583 208.909632,75.2826823 L215.816754,75.2826823 Z M217.155136,77.5204238 L208.909632,77.5204238 C209.41074,78.877036 210.749123,79.8502901 212.351412,79.8502901 C212.901217,79.8502901 213.879869,79.8042277 215.028176,79.1028904 C215.576411,78.7641088 216.319433,79.0806022 216.605331,79.6229499 C216.89123,80.1890717 216.581768,80.775996 216.031963,81.1162634 C214.453238,82.1103199 213.235812,82.0866446 212.351412,82.0866446 C209.029019,82.0866446 206.352254,79.5323109 206.352254,76.4134401 C206.352254,73.2707952 209.029019,70.7388486 212.351412,70.7388486 C215.241815,70.7388486 218.350569,72.7284475 218.350569,76.4134401 C218.350569,77.0241385 217.824328,77.5204238 217.155136,77.5204238 Z M205.22751,73.0003642 C203.221507,73.0003642 201.595655,74.5352826 201.595655,76.4357284 L201.595655,80.9795621 C201.595655,81.5902605 201.069413,82.1103199 200.425356,82.1103199 C199.754594,82.1103199 199.229923,81.5902605 199.229923,80.9795621 L199.229923,76.4357284 C199.229923,73.2930834 201.930251,70.759651 205.22751,70.759651 C205.896701,70.759651 206.422943,71.2574222 206.422943,71.8681205 C206.422943,72.4788189 205.896701,73.0003642 205.22751,73.0003642 Z M187.063524,82.1103199 C185.366983,82.1103199 184.005037,80.9572738 183.549485,79.6452381 C183.334275,79.0583139 183.835383,78.4476155 184.457448,78.3109142 C185.103076,78.1994729 185.557058,78.6288934 185.868091,79.1935294 C186.202686,79.7819395 186.490156,79.8710925 187.063524,79.8710925 C187.732715,79.8710925 188.280949,79.352519 188.280949,78.6957582 C188.280949,78.0627715 187.732715,77.5427121 187.063524,77.5427121 C186.106863,77.5427121 185.197329,77.1816422 184.529708,76.5471697 C183.835383,75.9156689 183.478795,75.0568279 183.478795,74.1519245 C183.478795,72.2767387 185.077942,70.759651 187.063524,70.759651 C188.734931,70.759651 190.26496,71.8458323 190.503732,73.1118056 C190.624689,73.7239898 190.241397,74.3332023 189.595769,74.4461295 C188.951711,74.581345 188.400335,74.1756986 188.186697,73.6095767 C188.042177,73.2485069 187.636892,73.0003642 187.063524,73.0003642 C186.392762,73.0003642 185.844528,73.5189378 185.844528,74.1519245 C185.844528,74.7849111 186.392762,75.3049706 187.063524,75.3049706 C188.018614,75.3049706 188.926577,75.6675263 189.595769,76.299027 C190.290094,76.9557878 190.646682,77.7923406 190.646682,78.6957582 C190.646682,80.5724298 189.047534,82.1103199 187.063524,82.1103199 Z M179.653723,71.8681205 C179.653723,71.2574222 180.179965,70.759651 180.849157,70.759651 C181.494785,70.759651 182.021027,71.2574222 182.021027,71.8681205 L182.021027,80.9795621 C182.021027,81.6125487 181.494785,82.1103199 180.849157,82.1103199 C180.179965,82.1103199 179.653723,81.6125487 179.653723,80.9795621 L179.653723,71.8681205 Z M179.653723,67.3926375 C179.653723,67.0999183 179.798244,66.8042274 180.013453,66.6021471 C180.227092,66.3970951 180.538124,66.2633655 180.849157,66.2633655 C181.158618,66.2633655 181.469651,66.3970951 181.68486,66.6021471 C181.90164,66.8042274 182.021027,67.0999183 182.021027,67.3926375 C182.021027,67.6868426 181.90164,67.9795617 181.68486,68.1831279 C181.469651,68.3881799 181.158618,68.5011071 180.849157,68.5011071 C180.538124,68.5011071 180.227092,68.3881799 180.013453,68.1831279 C179.798244,67.9795617 179.653723,67.6868426 179.653723,67.3926375 Z M172.267486,72.9305277 C170.259913,72.9305277 168.634061,74.4684178 168.634061,76.3450895 C168.634061,78.2663377 170.259913,79.8042277 172.267486,79.8042277 C174.27506,79.8042277 175.899341,78.2440494 175.899341,76.3673777 C175.899341,74.4684178 174.27506,72.9305277 172.267486,72.9305277 Z M172.267486,82.0419693 C168.968656,82.0419693 166.268328,79.4862485 166.268328,76.3673777 L166.268328,76.3450895 L166.268328,66.2173031 C166.268328,65.6066048 166.79457,65.1103195 167.463761,65.1103195 C168.10939,65.1103195 168.634061,65.6066048 168.634061,66.2173031 L168.634061,71.8458323 C169.637847,71.1236926 170.905541,70.6927862 172.267486,70.6927862 C175.589879,70.6927862 178.266644,73.2262186 178.266644,76.3673777 C178.266644,79.4862485 175.589879,82.0419693 172.267486,82.0419693 Z M159.003048,73.0003642 C156.993904,73.0003642 155.297362,74.6051191 155.297362,76.5040791 C155.297362,78.403039 156.993904,79.8502901 159.003048,79.8502901 C161.009051,79.8502901 162.53908,78.403039 162.53908,76.5040791 C162.53908,74.6051191 161.009051,73.0003642 159.003048,73.0003642 Z M164.881249,80.9349856 C164.881249,81.5902605 164.380141,82.0657434 163.685816,82.0657434 C163.208271,82.0657434 162.53908,81.5902605 162.53908,80.9349856 C161.510159,81.7477642 160.364994,82.0657434 159.003048,82.0657434 C155.631958,82.0657434 152.955193,79.6913005 152.955193,76.5040791 C152.955193,73.3153717 155.631958,70.7834251 159.003048,70.7834251 C162.370996,70.7834251 164.881249,73.3153717 164.881249,76.5040791 L164.881249,80.9349856 Z M151.520988,80.9572738 C151.520988,81.5902605 150.994746,82.0865458 150.323984,82.0865458 C149.679926,82.0865458 149.153684,81.5902605 149.153684,80.9572738 L149.153684,76.4134401 C149.153684,74.5144802 147.529403,72.9765901 145.52183,72.9765901 C143.512685,72.9765901 141.888404,74.5144802 141.888404,76.4134401 L141.888404,80.9572738 C141.888404,81.5902605 141.362162,82.0865458 140.692971,82.0865458 C140.047343,82.0865458 139.521101,81.5902605 139.521101,80.9572738 L139.521101,76.4134401 C139.521101,73.2707952 142.223,70.7388486 145.52183,70.7388486 C148.819089,70.7388486 151.520988,73.2707952 151.520988,76.4134401 L151.520988,80.9572738 Z M138.110458,80.9572738 C138.110458,81.5902605 137.584217,82.0865458 136.915025,82.0865458 C136.269397,82.0865458 135.744726,81.5902605 135.744726,80.9572738 L135.744726,76.4134401 C135.744726,74.5144802 134.118874,72.9765901 132.112871,72.9765901 C130.103727,72.9765901 128.479446,74.5144802 128.479446,76.4134401 L128.479446,80.9572738 C128.479446,81.5902605 127.953204,82.0865458 127.284013,82.0865458 C126.638385,82.0865458 126.112143,81.5902605 126.112143,80.9572738 L126.112143,76.4134401 C126.112143,73.2707952 128.814042,70.7388486 132.112871,70.7388486 C135.410131,70.7388486 138.110458,73.2707952 138.110458,76.4134401 L138.110458,80.9572738 Z M118.799736,73.0003642 C116.792163,73.0003642 115.094051,74.6051191 115.094051,76.5040791 C115.094051,78.403039 116.792163,79.8502901 118.799736,79.8502901 C120.805739,79.8502901 122.335768,78.403039 122.335768,76.5040791 C122.335768,74.6051191 120.805739,73.0003642 118.799736,73.0003642 Z M124.677937,80.9349856 C124.677937,81.5902605 124.176829,82.0657434 123.482504,82.0657434 C123.00653,82.0657434 122.335768,81.5902605 122.335768,80.9349856 C121.308418,81.7477642 120.160111,82.0657434 118.799736,82.0657434 C115.428646,82.0657434 112.751882,79.6913005 112.751882,76.5040791 C112.751882,73.3153717 115.428646,70.7834251 118.799736,70.7834251 C122.167685,70.7834251 124.677937,73.3153717 124.677937,76.5040791 L124.677937,80.9349856 Z M106.273608,70.759651 C108.424131,70.759651 110.408141,71.8458323 111.484188,73.5872885 C111.818784,74.1296362 111.603575,74.8071994 111.05377,75.1236927 C110.480401,75.4178977 109.764084,75.2381058 109.427918,74.7180463 C108.78386,73.6541533 107.588427,73.0003642 106.273608,73.0003642 C104.291168,73.0003642 102.641753,74.5352826 102.641753,76.4357284 C102.641753,78.3109142 104.291168,79.8710925 106.273608,79.8710925 C107.516167,79.8710925 108.664474,79.2841683 109.333665,78.2901118 C109.691824,77.7685665 110.433275,77.633351 110.981509,77.9513302 C111.531314,78.2901118 111.675835,78.9899632 111.316105,79.5115086 C110.216495,81.1385517 108.329879,82.1103199 106.273608,82.1103199 C102.976349,82.1103199 100.299584,79.5545992 100.299584,76.4357284 C100.299584,73.2930834 102.976349,70.759651 106.273608,70.759651 Z" id="Fill-1" fill="#FFFFFF"></path>
                </g>
            </g>
        </g>
    </g>
</svg>