<svg xmlns="http://www.w3.org/2000/svg" width="280" height="284" viewBox="0 0 280 284"><title>Logo_Large</title><g fill="none" fill-rule="evenodd"><path fill="#FFF" d="M146.271 0c44.86 0 81.227 36.366 81.227 81.227v7.244c0 44.86-36.367 81.227-81.227 81.227H57.8V81.227C57.8 36.367 94.166 0 139.027 0h7.244zm26.434 91.688h-56.9v.02c-13.999.433-25.121 12.49-23.997 26.825.942 12.029 10.629 21.768 22.653 22.771 14.228 1.187 26.253-9.695 26.941-23.512h.032v-9.788h-12.428v8.512l.002.024c0 6.852-5.575 12.426-12.426 12.426-6.852 0-12.426-5.574-12.426-12.426 0-6.793 5.48-12.322 12.252-12.417v-.014h12.598l12.428.005h31.271a6.213 6.213 0 100-12.426zM153.242 35.23c-13.338.325-24.234 12.013-24.234 25.355v27.013h12.426v-2.67l.006-12.427V60.19l-.006-.116c0-6.852 5.574-12.426 12.426-12.426 6.851 0 12.426 5.574 12.426 12.426 0 6.747-5.406 12.256-12.115 12.422l-.305.004h-8.31v12.426h7.793c13.342 0 25.03-10.895 25.356-24.233.347-14.192-11.27-25.81-25.463-25.464zm-28.121 37.27H97.99a6.213 6.213 0 000 12.427h27.13V72.5zM267.918 262.075c-5.697 0-10.275-4.095-11.802-8.748-.72-2.092.968-4.257 3.052-4.741 2.167-.398 3.693 1.129 4.736 3.133 1.122 2.085 2.09 2.408 4.014 2.408 2.245 0 4.094-1.843 4.094-4.176 0-2.246-1.85-4.089-4.094-4.089a12.008 12.008 0 01-8.507-3.537c-2.327-2.245-3.53-5.298-3.53-8.507a12.022 12.022 0 0112.037-12.043c5.621 0 10.759 3.853 11.559 8.352.403 2.166-.881 4.331-3.047 4.734-2.171.484-4.013-.962-4.74-2.973-.478-1.284-1.843-2.164-3.772-2.164-2.247 0-4.096 1.848-4.096 4.094 0 2.247 1.85 4.096 4.096 4.096 3.214 0 6.26 1.284 8.512 3.53 2.326 2.327 3.53 5.299 3.53 8.507 0 6.664-5.379 12.124-12.042 12.124zm-19.173-32.351h-5.701v28.336c0 2.166-1.764 4.015-4.01 4.015-2.171 0-3.932-1.85-3.932-4.015v-28.336h-5.784c-2.166 0-3.934-1.843-3.934-4.015a3.943 3.943 0 013.934-3.934h5.784v-16.051a3.939 3.939 0 013.933-3.934c2.245 0 4.009 1.768 4.009 3.934v16.051h5.7c2.248 0 4.016 1.768 4.016 3.934 0 2.172-1.768 4.015-4.015 4.015zm-23.019 28.256a3.978 3.978 0 01-4.015 4.014c-2.166 0-3.933-1.768-3.933-4.014v-16.133c0-6.744-5.46-12.204-12.199-12.204-6.744 0-12.204 5.46-12.204 12.204v16.133a3.975 3.975 0 01-4.015 4.014c-2.165 0-3.934-1.768-3.934-4.014v-16.133c0-11.162 9.071-20.152 20.153-20.152 11.075 0 20.147 8.99 20.147 20.152v16.133zm-52.814-32.271c0-2.166 1.767-3.934 4.013-3.934a3.943 3.943 0 013.935 3.934v32.35c0 2.247-1.769 4.016-3.935 4.016a3.978 3.978 0 01-4.013-4.015v-32.351zm0-15.89c0-1.049.483-2.09 1.203-2.811.727-.726 1.769-1.203 2.81-1.203 1.043 0 2.085.477 2.812 1.203.72.72 1.123 1.762 1.123 2.81 0 1.044-.403 2.086-1.123 2.806-.727.726-1.769 1.129-2.812 1.129-1.041 0-2.083-.403-2.81-1.129-.72-.72-1.203-1.762-1.203-2.805zm-24.702 44.227c6.739 0 12.199-5.54 12.199-12.199 0-6.744-5.46-12.204-12.199-12.204-6.744 0-12.204 5.46-12.204 12.204 0 6.658 5.46 12.199 12.204 12.199zm0-32.351a20.11 20.11 0 0120.147 20.152c0 11.075-8.991 20.147-20.147 20.147-11.081 0-20.152-9.072-20.152-20.147 0-11.162 9.07-20.152 20.152-20.152zm-57.138 20.55c0 6.663 5.46 12.124 12.205 12.124 6.744 0 12.198-5.46 12.198-12.206 0-6.657-5.454-12.197-12.198-12.197-6.745 0-12.205 5.46-12.205 12.197v.082zm0 37.662a3.934 3.934 0 01-3.933 3.933c-2.248 0-4.015-1.761-4.015-3.933v-37.744c0-11.075 9.07-20.146 20.153-20.146 11.155 0 20.146 9.071 20.146 20.146 0 11.164-8.991 20.154-20.146 20.154-4.58 0-8.83-1.527-12.205-4.096v21.686zm-20.786-74.102c0-2.172 1.768-3.935 4.015-3.935a3.94 3.94 0 013.933 3.935v52.255c0 2.246-1.769 4.015-3.933 4.015a3.978 3.978 0 01-4.015-4.015v-52.255zm-12.918 19.904c0-2.166 1.768-3.934 4.015-3.934a3.943 3.943 0 013.933 3.934v32.35c0 2.247-1.769 4.016-3.933 4.016a3.979 3.979 0 01-4.015-4.015v-32.351zm0-15.89c0-1.049.484-2.09 1.203-2.811.727-.726 1.769-1.203 2.812-1.203 1.042 0 2.084.477 2.81 1.203.72.72 1.123 1.762 1.123 2.81 0 1.044-.403 2.086-1.123 2.806-.726.726-1.768 1.129-2.81 1.129-1.043 0-2.085-.403-2.812-1.129-.72-.72-1.203-1.762-1.203-2.805zm-24.7 44.227c6.738 0 12.198-5.54 12.198-12.199 0-6.744-5.46-12.204-12.199-12.204-6.744 0-12.205 5.46-12.205 12.204 0 6.658 5.461 12.199 12.205 12.199zm0-32.351a20.11 20.11 0 0120.145 20.152c0 11.075-8.99 20.147-20.146 20.147-11.081 0-20.153-9.072-20.153-20.147 0-11.162 9.072-20.152 20.153-20.152zM0 205.805c0-2.172 1.768-3.935 4.014-3.935a3.94 3.94 0 013.934 3.935v52.255c0 2.246-1.768 4.015-3.934 4.015A3.978 3.978 0 010 258.06v-52.255zM273.516 283.9c-1.698 0-3.06-1.153-3.514-2.465-.215-.587.286-1.198.908-1.334.646-.112 1.1.318 1.41.882.334.589.621.678 1.196.678.67 0 1.218-.519 1.218-1.176 0-.633-.548-1.153-1.218-1.153a3.681 3.681 0 01-2.533-.995 3.198 3.198 0 01-1.051-2.395c0-1.876 1.599-3.393 3.584-3.393 1.673 0 3.202 1.087 3.442 2.352a1.122 1.122 0 01-.91 1.335c-.645.135-1.193-.27-1.408-.837-.145-.36-.552-.609-1.124-.609-.67 0-1.219.519-1.219 1.152 0 .633.549 1.153 1.22 1.153a3.69 3.69 0 012.532.994c.694.656 1.05 1.493 1.05 2.396 0 1.877-1.599 3.415-3.583 3.415zm-10.996-9.18c-2.007 0-3.632 1.538-3.632 3.437 0 1.877 1.625 3.437 3.632 3.437 2.006 0 3.634-1.538 3.634-3.437 0-1.899-1.628-3.437-3.634-3.437zm3.634-6.713c0-.61.526-1.107 1.17-1.107.67 0 1.194.496 1.194 1.107v10.15c0 3.119-2.699 5.675-5.998 5.675-3.322 0-5.999-2.556-5.999-5.675 0-3.141 2.677-5.675 6-5.675 1.361 0 2.629.431 3.633 1.154v-5.629zm-10.78 6.783c-2.007 0-3.631 1.535-3.631 3.435v4.544c0 .61-.527 1.131-1.172 1.131-.67 0-1.196-.52-1.196-1.13v-4.545c0-3.142 2.702-5.676 6-5.676.669 0 1.195.498 1.195 1.109 0 .61-.526 1.132-1.196 1.132zm-13.313 0c-2.009 0-3.705 1.605-3.705 3.504s1.696 3.346 3.705 3.346c2.008 0 3.538-1.447 3.538-3.346a3.51 3.51 0 00-3.538-3.504zm5.88 7.935c0 .655-.503 1.13-1.197 1.13-.477 0-1.145-.475-1.145-1.13-1.029.812-2.176 1.13-3.538 1.13-3.37 0-6.048-2.374-6.048-5.561 0-3.189 2.677-5.72 6.048-5.72 3.368 0 5.88 2.531 5.88 5.72v4.43zm-15.968.407c-.19.428-.644.744-1.147.744-.502 0-.955-.292-1.124-.744l-2.485-6.263-2.462 6.263c-.19.428-.644.744-1.145.744-.504 0-.957-.292-1.125-.744l-3.585-9.043c-.238-.587.071-1.244.693-1.448.599-.225 1.291.067 1.507.656l2.51 6.307 2.485-6.261a1.13 1.13 0 01.716-.702.988.988 0 01.358-.068h.263s0 .022.025.022h.047c.025 0 .025 0 .047.024h.05c.022.022.022.022.046.022.336.113.598.385.693.702l2.486 6.261 2.51-6.307c.238-.589.909-.881 1.53-.656.596.204.909.86.692 1.448l-3.585 9.043zm-16.156-6.06c-.503-1.582-2.031-2.306-3.466-2.306-1.602 0-2.94.972-3.441 2.306h6.907zm1.338 2.238h-8.245c.5 1.357 1.84 2.33 3.441 2.33.55 0 1.529-.046 2.677-.747.548-.34 1.291-.023 1.577.52.286.566-.023 1.153-.573 1.493-1.579.994-2.796.97-3.68.97-3.323 0-6-2.554-6-5.673 0-3.143 2.677-5.674 6-5.674 2.89 0 5.999 1.99 5.999 5.674 0 .61-.527 1.107-1.196 1.107zm-11.927-4.52c-2.006 0-3.632 1.535-3.632 3.435v4.544c0 .61-.527 1.131-1.17 1.131-.671 0-1.196-.52-1.196-1.13v-4.545c0-3.142 2.7-5.676 5.998-5.676.669 0 1.195.498 1.195 1.109 0 .61-.526 1.132-1.195 1.132zm-18.164 9.11c-1.697 0-3.059-1.153-3.515-2.465-.215-.587.286-1.198.908-1.334.646-.112 1.1.318 1.411.882.335.589.622.678 1.196.678.669 0 1.217-.519 1.217-1.176 0-.633-.548-1.153-1.217-1.153a3.679 3.679 0 01-2.534-.995 3.198 3.198 0 01-1.051-2.395c0-1.876 1.599-3.393 3.585-3.393 1.67 0 3.201 1.087 3.44 2.352a1.12 1.12 0 01-.908 1.335c-.644.135-1.196-.27-1.41-.837-.144-.36-.55-.609-1.122-.609-.671 0-1.22.519-1.22 1.152 0 .633.549 1.153 1.22 1.153.955 0 1.863.362 2.532.994.694.656 1.05 1.493 1.05 2.396 0 1.877-1.598 3.415-3.582 3.415zm-7.41-10.242c0-.61.526-1.109 1.195-1.109.646 0 1.172.498 1.172 1.109v9.111c0 .633-.526 1.131-1.172 1.131-.669 0-1.195-.498-1.195-1.13v-9.112zm0-4.476c0-.292.144-.588.36-.79.213-.205.524-.339.835-.339.31 0 .62.134.836.339.217.202.336.498.336.79 0 .295-.12.587-.336.79a1.226 1.226 0 01-.836.319 1.22 1.22 0 01-.836-.318 1.12 1.12 0 01-.36-.79zm-7.387 5.538c-2.007 0-3.633 1.538-3.633 3.415 0 1.921 1.626 3.459 3.633 3.459 2.008 0 3.632-1.56 3.632-3.437 0-1.899-1.624-3.437-3.632-3.437zm0 9.112c-3.298 0-5.999-2.556-5.999-5.675v-10.15c0-.61.527-1.107 1.196-1.107.645 0 1.17.496 1.17 1.107v5.629a6.226 6.226 0 013.633-1.154c3.323 0 6 2.534 6 5.675 0 3.119-2.677 5.675-6 5.675zm-13.264-9.042c-2.01 0-3.706 1.605-3.706 3.504s1.697 3.346 3.706 3.346c2.006 0 3.536-1.447 3.536-3.346a3.51 3.51 0 00-3.536-3.504zm5.878 7.935c0 .655-.5 1.13-1.195 1.13-.478 0-1.147-.475-1.147-1.13-1.029.812-2.174 1.13-3.536 1.13-3.371 0-6.048-2.374-6.048-5.561 0-3.189 2.677-5.72 6.048-5.72 3.368 0 5.878 2.531 5.878 5.72v4.43zm-13.36.022c0 .633-.526 1.13-1.197 1.13-.644 0-1.17-.497-1.17-1.13v-4.544c0-1.899-1.625-3.437-3.632-3.437-2.01 0-3.634 1.538-3.634 3.437v4.544c0 .633-.526 1.13-1.195 1.13-.646 0-1.172-.497-1.172-1.13v-4.544c0-3.143 2.702-5.674 6-5.674s6 2.531 6 5.674v4.544zm-13.41 0c0 .633-.527 1.13-1.196 1.13-.646 0-1.17-.497-1.17-1.13v-4.544c0-1.899-1.626-3.437-3.632-3.437-2.01 0-3.634 1.538-3.634 3.437v4.544c0 .633-.526 1.13-1.195 1.13-.646 0-1.172-.497-1.172-1.13v-4.544c0-3.143 2.702-5.674 6-5.674s5.998 2.531 5.998 5.674v4.544zM118.8 274.79c-2.008 0-3.706 1.605-3.706 3.504s1.698 3.346 3.706 3.346c2.006 0 3.536-1.447 3.536-3.346a3.51 3.51 0 00-3.536-3.504zm5.878 7.935c0 .655-.501 1.13-1.195 1.13-.476 0-1.147-.475-1.147-1.13-1.028.812-2.176 1.13-3.536 1.13-3.371 0-6.048-2.374-6.048-5.561 0-3.189 2.677-5.72 6.048-5.72 3.368 0 5.878 2.531 5.878 5.72v4.43zm-18.404-10.176c2.15 0 4.134 1.087 5.21 2.828.335.542.12 1.22-.43 1.536-.574.295-1.29.115-1.626-.405-.644-1.064-1.84-1.718-3.154-1.718-1.983 0-3.632 1.535-3.632 3.435 0 1.876 1.65 3.436 3.632 3.436 1.242 0 2.39-.587 3.06-1.581.358-.522 1.1-.657 1.648-.339.55.339.694 1.039.334 1.56-1.1 1.627-2.986 2.599-5.042 2.599-3.298 0-5.974-2.556-5.974-5.675 0-3.142 2.676-5.676 5.974-5.676z"/></g></svg>