<svg xmlns="http://www.w3.org/2000/svg" xmlns:xlink="http://www.w3.org/1999/xlink" width="182" height="42" viewBox="0 0 182 42"><title>Logo_Small</title><defs><path id="a" d="M0 0h143.357v43.245H0z"/></defs><g fill="none" fill-rule="evenodd"><g transform="translate(38.302)"><mask id="b" fill="#fff"><use xlink:href="#a"/></mask><path fill="#58B956" d="M137.191 30.87c-2.917 0-5.261-2.098-6.043-4.48-.369-1.07.495-2.18 1.563-2.428 1.109-.203 1.89.579 2.424 1.605.575 1.068 1.071 1.233 2.056 1.233 1.15 0 2.097-.944 2.097-2.139 0-1.15-.947-2.093-2.097-2.093a6.15 6.15 0 0 1-4.356-1.811c-1.192-1.15-1.808-2.714-1.808-4.356a6.156 6.156 0 0 1 6.164-6.167c2.879 0 5.51 1.973 5.919 4.276.206 1.11-.451 2.218-1.56 2.425-1.112.247-2.055-.493-2.427-1.522-.245-.658-.944-1.11-1.932-1.11-1.15 0-2.097.947-2.097 2.098 0 1.15.947 2.097 2.097 2.097 1.646 0 3.206.657 4.359 1.807a6.064 6.064 0 0 1 1.808 4.356c0 3.412-2.755 6.209-6.167 6.209zm-9.817-16.566h-2.92v14.51a2.06 2.06 0 0 1-2.053 2.056c-1.112 0-2.014-.947-2.014-2.056v-14.51h-2.962c-1.108 0-2.014-.944-2.014-2.056 0-1.109.906-2.014 2.014-2.014h2.962v-8.22c0-1.108.902-2.014 2.014-2.014 1.15 0 2.052.906 2.052 2.014v8.22h2.92c1.15 0 2.056.905 2.056 2.014a2.061 2.061 0 0 1-2.055 2.056zm-11.788 14.468c0 1.151-.905 2.056-2.056 2.056-1.109 0-2.014-.905-2.014-2.056v-8.26a6.247 6.247 0 0 0-6.246-6.25 6.247 6.247 0 0 0-6.25 6.25v8.26c0 1.151-.902 2.056-2.056 2.056-1.108 0-2.014-.905-2.014-2.056v-8.26c0-5.715 4.645-10.32 10.32-10.32 5.67 0 10.316 4.605 10.316 10.32v8.26zM88.542 12.248c0-1.109.905-2.014 2.055-2.014a2.02 2.02 0 0 1 2.015 2.014v16.566c0 1.15-.906 2.056-2.015 2.056a2.037 2.037 0 0 1-2.055-2.056V12.248zm0-8.136c0-.538.248-1.071.616-1.44.372-.372.906-.616 1.44-.616.533 0 1.067.244 1.439.616.368.369.575.902.575 1.44 0 .533-.207 1.067-.575 1.436a2.056 2.056 0 0 1-1.44.578 2.055 2.055 0 0 1-1.439-.578c-.368-.37-.616-.903-.616-1.436zM75.894 26.758c3.45 0 6.246-2.837 6.246-6.246a6.246 6.246 0 0 0-6.246-6.25 6.247 6.247 0 0 0-6.25 6.25c0 3.41 2.796 6.246 6.25 6.246zm0-16.565a10.298 10.298 0 0 1 10.316 10.32c0 5.67-4.604 10.315-10.316 10.315-5.675 0-10.32-4.645-10.32-10.316 0-5.715 4.645-10.32 10.32-10.32zm-29.26 10.523c0 3.412 2.797 6.208 6.25 6.208a6.244 6.244 0 0 0 6.247-6.25c0-3.41-2.793-6.246-6.247-6.246a6.246 6.246 0 0 0-6.25 6.246v.042zm0 18.414a2.015 2.015 0 0 1-2.014 2.014c-1.15 0-2.055-.902-2.055-2.014V20.674c0-5.671 4.645-10.316 10.319-10.316 5.713 0 10.317 4.645 10.317 10.316 0 5.716-4.604 10.32-10.317 10.32a10.3 10.3 0 0 1-6.25-2.098V39.13zM35.992 2.056c0-1.112.906-2.015 2.056-2.015 1.108 0 2.014.903 2.014 2.015v26.758c0 1.15-.906 2.056-2.014 2.056a2.037 2.037 0 0 1-2.056-2.056V2.056zm-6.615 10.192c0-1.109.906-2.014 2.056-2.014 1.108 0 2.014.905 2.014 2.014v16.566c0 1.15-.906 2.056-2.014 2.056a2.037 2.037 0 0 1-2.056-2.056V12.248zm0-8.136c0-.538.248-1.071.617-1.44.371-.372.905-.616 1.439-.616s1.068.244 1.44.616c.368.369.574.902.574 1.44 0 .533-.206 1.067-.575 1.436a2.055 2.055 0 0 1-1.439.578 2.054 2.054 0 0 1-1.44-.578c-.368-.37-.616-.903-.616-1.436zM16.728 26.758c3.45 0 6.247-2.837 6.247-6.246a6.247 6.247 0 0 0-6.247-6.25 6.247 6.247 0 0 0-6.25 6.25c0 3.41 2.796 6.246 6.25 6.246zm0-16.565a10.298 10.298 0 0 1 10.316 10.32c0 5.67-4.604 10.315-10.316 10.315-5.674 0-10.32-4.645-10.32-10.316 0-5.715 4.646-10.32 10.32-10.32zM0 2.056C0 .944.905.04 2.056.04c1.109 0 2.014.903 2.014 2.015v26.758c0 1.15-.905 2.056-2.014 2.056A2.037 2.037 0 0 1 0 28.814V2.056z" mask="url(#b)"/></g><path fill="#58B956" d="M15.467 0c8.543 0 15.468 6.925 15.468 15.467 0 8.543-6.925 15.468-15.468 15.468H2.837A2.837 2.837 0 0 1 0 28.097v-12.63C0 6.925 6.925 0 15.467 0z"/><path fill="#FFF" d="M15.399 18.605h5.225a1.038 1.038 0 1 0 0-2.076h-9.508v.003a4.157 4.157 0 0 0-4.01 4.483 4.166 4.166 0 0 0 3.785 3.805 4.158 4.158 0 0 0 4.502-3.93h.006v-1.635h-2.077V20.682a2.079 2.079 0 0 1-2.076 2.076 2.079 2.079 0 0 1-2.077-2.076c0-1.136.916-2.06 2.048-2.075v-.003h2.105l2.077.001zm0-5.283v-2.057-.02c0-1.144.931-2.076 2.076-2.076s2.077.932 2.077 2.077a2.079 2.079 0 0 1-2.076 2.076h-1.389V15.4h1.303c2.23 0 4.182-1.82 4.237-4.05a4.157 4.157 0 0 0-4.255-4.255c-2.229.055-4.05 2.008-4.05 4.237V15.845H15.4v-2.523zm-2.726 0H8.139a1.038 1.038 0 0 0 0 2.077h4.534v-2.077z"/></g></svg>