<?xml version="1.0" encoding="UTF-8"?>
<svg width="42px" height="51px" viewBox="0 0 42 51" version="1.1" xmlns="http://www.w3.org/2000/svg" xmlns:xlink="http://www.w3.org/1999/xlink">
    <!-- Generator: Sketch 60 (88103) - https://sketch.com -->
    <title>Loil_Small_logo</title>
    <desc>Created with Sketch.</desc>
    <defs>
        <polygon id="path-1" points="2.43889823e-06 8.31393603e-05 41.3886149 8.31393603e-05 41.3886149 50.399511 2.43889823e-06 50.399511"></polygon>
    </defs>
    <g id="Web" stroke="none" stroke-width="1" fill="none" fill-rule="evenodd">
        <g id="Loil_Signup_BRD_v05" transform="translate(-45.000000, -26.000000)">
            <g id="Loil_Small_logo" transform="translate(45.000000, 26.000000)">
                <mask id="mask-2" fill="white">
                    <use xlink:href="#path-1"></use>
                </mask>
                <g id="Clip-2"></g>
                <path d="M23.5947914,32.7034538 L38.4393824,32.7034538 C40.0682654,32.7034538 41.3887184,31.3830008 41.3887184,29.7541178 C41.3887184,28.1252348 40.0682654,26.8047818 38.4393824,26.8047818 L23.5947914,26.8047818 L17.6961194,26.8047818 L11.4287805,26.8047818 L11.4287805,26.8140968 C4.78345948,27.0196478 -0.496282498,32.7436118 0.0371564999,39.5481158 C0.484690498,45.2580037 5.08278148,49.8813487 10.7905995,50.3574487 C17.5448024,50.9206957 23.2528274,45.7550107 23.5796804,39.1962158 L23.5947914,39.1962158 L23.5947914,34.5501008 L17.6954984,34.5501008 L17.6954984,38.5905338 L17.6961194,38.6021258 C17.6961194,41.8547168 15.0498314,44.5007977 11.7974475,44.5007977 C8.54485647,44.5007977 5.89877548,41.8547168 5.89877548,38.6021258 C5.89877548,35.3774798 8.50076547,32.7525128 11.7148545,32.7075938 L11.7148545,32.7011768 L17.6954984,32.7011768 L23.5947914,32.7034538 Z M23.5974824,17.6959538 L23.5974824,11.8525509 C23.5972754,11.8339209 23.5947914,11.8159119 23.5947914,11.7974889 C23.5947914,8.54489787 26.2408724,5.89881688 29.4934634,5.89881688 C32.7458474,5.89881688 35.3921354,8.54489787 35.3921354,11.7974889 C35.3921354,15.0490448 32.7472964,17.6945048 29.4961544,17.6959538 L29.4961544,17.6959538 L25.5511484,17.6959538 L25.5511484,23.5948328 L29.2510664,23.5948328 C35.5842314,23.5948328 41.1324524,18.4229378 41.2872884,12.0914289 C41.4520604,5.35461388 35.9371664,-0.160694099 29.2001444,0.00366389999 C22.8684284,0.158085899 17.6961194,5.70609988 17.6961194,12.0398859 L17.6961194,17.6959538 L17.6961194,23.5948328 L17.6961194,24.8629148 L23.5947914,24.8629148 L23.5947914,23.5948328 L23.5974824,17.6959538 Z M15.8509214,17.6959538 L2.97220949,17.6959538 C1.3431195,17.6959538 0.0226664999,19.0166138 0.0226664999,20.6454968 C0.0226664999,22.2743798 1.3431195,23.5948328 2.97220949,23.5948328 L15.8509214,23.5948328 L15.8509214,17.6959538 Z" id="Fill-1" fill="#FFFFFF" mask="url(#mask-2)"></path>
            </g>
        </g>
    </g>
</svg>